<?xml version="1.0" encoding="UTF-8" standalone="no"?>
<svg
   xmlns:dc="http://purl.org/dc/elements/1.1/"
   xmlns:cc="http://creativecommons.org/ns#"
   xmlns:rdf="http://www.w3.org/1999/02/22-rdf-syntax-ns#"
   xmlns:svg="http://www.w3.org/2000/svg"
   xmlns="http://www.w3.org/2000/svg"
   id="svg5533"
   version="1.1"
   viewBox="0 0 72.269356 29.904451"
   height="29.904451mm"
   width="72.269356mm">
  <defs
     id="defs5527" />
  <metadata
     id="metadata5530">
    <rdf:RDF>
      <cc:Work
         rdf:about="">
        <dc:format>image/svg+xml</dc:format>
        <dc:type
           rdf:resource="http://purl.org/dc/dcmitype/StillImage" />
        <dc:title></dc:title>
      </cc:Work>
    </rdf:RDF>
  </metadata>
  <g
     transform="translate(-64.406987,-128.58944)"
     id="layer1">
    <g
       transform="matrix(0.20372271,0,0,0.20372271,56.998592,-18.841772)"
       id="g2875">
      <path
         style="fill:#bd0000;fill-opacity:1;fill-rule:evenodd;stroke:none;stroke-width:1.06666669pt;stroke-linecap:butt;stroke-linejoin:miter"
         id="path2877"
         d="m 240.54302,812.58039 c 0,0 -0.007,0 -0.007,0 -0.65848,0 -1.23989,0.21723 -1.78636,0.65862 -0.40632,0.32217 -0.68661,0.75663 -0.91078,1.24002 0,0 0.028,0 0.028,0 0.22416,-0.48339 0.50446,-0.91785 0.90372,-1.24002 0.54646,-0.44139 1.12787,-0.65154 1.77248,-0.65862 z" />
      <path
         style="fill:#bd0000;fill-opacity:1;fill-rule:evenodd;stroke:none;stroke-width:1.06666669pt;stroke-linecap:butt;stroke-linejoin:miter"
         id="path2879"
         d="m 240.56397,812.58039 c -0.007,0 -0.014,0 -0.0209,0 0.67955,0.007 1.12788,0.2383 1.42912,0.7357 0.13309,0.21015 0.20309,0.52539 0.20309,0.92465 0,0.0702 -0.014,0.16121 -0.0209,0.23829 0,0 0.0279,0 0.0279,0 0,-0.0771 0.014,-0.16815 0.014,-0.23829 0,-0.39926 -0.063,-0.7145 -0.19616,-0.92465 -0.30124,-0.50446 -0.75662,-0.7357 -1.43617,-0.7357 z" />
      <g
         style="fill:#663366;fill-opacity:1"
         id="g2881"
         transform="matrix(0.385154,0,0,0.385154,352.57439,1144.7491)">
        <g
           style="fill:#663366;fill-opacity:1;fill-rule:evenodd;stroke:none;stroke-width:1.00000003pt;stroke-linecap:butt;stroke-linejoin:miter"
           id="g2883"
           transform="matrix(1.705222,0,0,1.705222,-820.99445,-777.59531)">
          <path
             style="fill:#663366;fill-opacity:1;stroke-width:1.06666669pt"
             id="path2885"
             d="m 0,38.4 c 0,0 7.9573333,0 7.9573333,0 0,0 3.5733337,-14.933333 3.5733337,-14.933333 0,0 12.928,0 12.928,0 0,0 1.664,-6.4 1.664,-6.4 0,0 -12.981334,0 -12.981334,0 0,0 2.154667,-9.6000003 2.154667,-9.6000003 0,0 13.813333,0 13.813333,0 0,0 1.664,-7.4666667 1.664,-7.4666667 C 30.773333,0 8.96,0 8.96,0 8.96,0 0,38.4 0,38.4 Z" />
        </g>
        <g
           style="fill:#663366;fill-opacity:1;fill-rule:evenodd;stroke:none;stroke-width:1.00000003pt;stroke-linecap:butt;stroke-linejoin:miter"
           id="g2887"
           transform="matrix(1.705222,0,0,1.705222,-773.79392,-759.40629)">
          <path
             style="fill:#663366;fill-opacity:1;stroke-width:1.06666669pt"
             id="path2889"
             d="m 8.0106667,27.733333 c 0,0 2.3893333,-10.026666 2.3893333,-10.026666 1.258667,-5.429334 3.914667,-10.2400003 8.938667,-10.2400003 0.448,0 0.885333,0.224 1.216,0.2773333 0,0 1.941333,-7.69066667 1.941333,-7.69066667 C 22.048,0.05333333 21.557333,0 21.002667,0 17.301333,0 14.197333,2.6026667 12.128,6.336 c 0,0 -0.213333,0 -0.213333,0 0.309333,-1.824 0.576,-3.552 0.778666,-5.2693333 0,0 -6.8586663,0 -6.8586663,0 C 5.44,3.2853333 4.832,7.6266667 3.904,11.541333 c 0,0 -3.904,16.192 -3.904,16.192 0,0 8.0106667,0 8.0106667,0 z" />
        </g>
        <g
           style="fill:#663366;fill-opacity:1;fill-rule:evenodd;stroke:none;stroke-width:1.00000003pt;stroke-linecap:butt;stroke-linejoin:miter"
           id="g2891"
           transform="matrix(1.705222,0,0,1.705222,-736.26987,-759.40629)">
          <path
             style="fill:#663366;fill-opacity:1;stroke-width:1.06666669pt"
             id="path2893"
             d="m 21.397333,20.533333 c -2.208,1.077334 -4.725333,0.8 -7.658666,0.8 -2.314667,0 -4.106667,-0.405333 -5.0880003,-1.194666 -0.512,-0.864 -0.7253334,-2.208 -0.6826667,-3.072 10.805333,0.288 17.621333,-2.208 17.962667,-9.034667 C 26.186667,2.88 22.421333,0 16.949333,0 7.1786667,0 0.77866667,8.6186667 0.36266667,16.917333 0,24.16 3.7546667,27.733333 11.498667,27.733333 c 2.976,0 6.922666,-0.341333 10.154666,-1.312 0,0 -0.256,-5.888 -0.256,-5.888 z M 18.474667,8.032 c -0.128,2.538667 -3.264,2.688 -9.4400003,2.634667 C 9.7066667,8.4373333 11.968,6.4 15.669333,6.4 c 1.824,0 2.869334,0.6933333 2.805334,1.632 z" />
        </g>
        <g
           style="fill:#663366;fill-opacity:1;fill-rule:evenodd;stroke:none;stroke-width:1.00000003pt;stroke-linecap:butt;stroke-linejoin:miter"
           id="g2895"
           transform="matrix(1.705222,0,0,1.705222,-688.03253,-759.40629)">
          <path
             style="fill:#663366;fill-opacity:1;stroke-width:1.06666669pt"
             id="path2897"
             d="m 21.386667,20.533333 c -2.208,1.077334 -4.725334,0.8 -7.648,0.8 -2.325334,0 -4.106667,-0.405333 -5.0880003,-1.194666 -0.512,-0.864 -0.736,-2.208 -0.6933334,-3.072 C 18.773333,17.354667 25.578667,14.858667 25.930667,8.032 26.186667,2.88 22.421333,0 16.949333,0 7.168,0 0.768,8.6186667 0.352,16.917333 0,24.16 3.7546667,27.733333 11.488,27.733333 c 2.986667,0 6.933333,-0.341333 10.165333,-1.312 0,0 -0.266666,-5.888 -0.266666,-5.888 z M 18.474667,8.032 c -0.128,2.538667 -3.264,2.688 -9.450667,2.634667 C 9.7066667,8.4373333 11.957333,6.4 15.658667,6.4 c 1.824,0 2.88,0.6933333 2.816,1.632 z" />
        </g>
        <g
           style="fill:#663366;fill-opacity:1;fill-rule:evenodd;stroke:none;stroke-width:1.00000003pt;stroke-linecap:butt;stroke-linejoin:miter"
           id="g2899"
           transform="matrix(1.705222,0,0,1.705222,-622.71573,-759.40629)">
          <path
             style="fill:#663366;fill-opacity:1;stroke-width:1.06666669pt"
             id="path2901"
             d="M 24.256,27.733333 C 24.32,24.352 25.130667,19.04 25.973333,15.552 c 0,0 3.424,-14.4853333 3.424,-14.4853333 C 27.221333,0.33066667 23.829333,0 20.565333,0 7.3173333,0 0.74666667,9.8133333 0.288,19.008 0,24.778667 3.1253333,27.733333 7.9893333,27.733333 c 3.1466667,0 6.6986667,-1.525333 9.4613337,-6.112 0,0 0.117333,0 0.117333,0 -0.213333,2.208 -0.469333,4.352 -0.608,6.112 0,0 7.296,0 7.296,0 z m -5.472,-15.232 c -1.557333,6.784 -4.736,8.832 -7.104,8.832 -2.208,0 -3.168,-1.568 -3.04,-3.850666 C 8.896,12.330667 12.970667,6.4 18.112,6.4 c 0.832,0 1.482667,-0.1493333 2.090667,-0.2986667 0,0 -1.418667,6.3999997 -1.418667,6.3999997 z" />
        </g>
        <g
           style="fill:#663366;fill-opacity:1;fill-rule:evenodd;stroke:none;stroke-width:1.00000003pt;stroke-linecap:butt;stroke-linejoin:miter"
           id="g2903"
           transform="matrix(1.705222,0,0,1.705222,-572.45941,-759.40629)">
          <path
             style="fill:#663366;fill-opacity:1;stroke-width:1.06666669pt"
             id="path2905"
             d="M 0,26.474667 C 1.536,27.669333 4.7573333,27.68 8.1173333,27.733333 15.296,27.786667 20.714667,24.650667 21.034667,18.890667 21.216,15.050667 18.24,12.778667 15.328,11.253333 13.226667,10.24 12.170667,9.2693333 12.224,8.1386667 12.298667,6.6133333 13.728,6.4 15.829333,6.4 c 2.368,0 4.266667,0.288 5.354667,0.5013333 0,0 2.154667,-5.7813333 2.154667,-5.7813333 C 22.112,0.384 19.658667,0 16.512,0 9.5466667,0 4.448,3.68 4.16,9.2693333 3.9893333,12.725333 6.4746667,15.050667 9.4826667,16.629333 c 2.4320003,1.248 3.2640003,2.208 3.2000003,3.562667 C 12.608,21.557333 11.392,21.333333 9.184,21.333333 c -2.592,0 -5.4613333,-0.341333 -6.976,-0.576 0,0 -2.208,5.717334 -2.208,5.717334 z" />
        </g>
        <g
           style="fill:#663366;fill-opacity:1;fill-rule:evenodd;stroke:none;stroke-width:1.00000003pt;stroke-linecap:butt;stroke-linejoin:miter"
           id="g2907"
           transform="matrix(1.705222,0,0,1.705222,-513.43605,-779.41419)">
          <path
             style="fill:#663366;fill-opacity:1;stroke-width:1.06666669pt"
             id="path2909"
             d="M 7.9466667,39.466667 C 7.9466667,39.466667 14.4,12.8 14.4,12.8 c 0,0 -7.904,0 -7.904,0 0,0 -6.496,26.666667 -6.496,26.666667 0,0 7.9466667,0 7.9466667,0 z M 11.648,9.6 c 2.709333,0 5.12,-2.24 5.269333,-6.08 C 17.045333,0.91733333 15.36,0 12.874667,0 10.282667,0 7.9146667,1.6853333 7.776,4.2026667 7.648,6.7413333 9.3333333,9.6 11.648,9.6 Z" />
        </g>
        <g
           style="fill:#663366;fill-opacity:1;fill-rule:evenodd;stroke:none;stroke-width:1.00000003pt;stroke-linecap:butt;stroke-linejoin:miter"
           id="g2911"
           transform="matrix(1.705222,0,0,1.705222,-487.44395,-758.15125)">
          <path
             style="fill:#663366;fill-opacity:1;stroke-width:1.06666669pt"
             id="path2913"
             d="m 7.9573333,26.997333 c 0,0 2.8159997,-12.010666 2.8159997,-12.010666 1.461334,-6.1120003 4.608,-8.2560003 7.2,-8.2560003 2.048,0 2.645334,0.8746666 2.549334,2.144 -0.05333,1.024 -0.213334,2.1013333 -0.426667,3.0613333 0,0 -3.584,15.061333 -3.584,15.061333 0,0 7.957333,0 7.957333,0 0,0 3.776,-15.797333 3.776,-15.797333 0.288,-1.3653333 0.608,-3.4026667 0.672,-4.64 C 29.152,1.7493333 26.752,0 22.336,0 c -3.541333,0 -6.986667,1.6426667 -9.706667,5.2053333 0,0 -0.106666,0 -0.106666,0 0,0 0.725333,-4.87466663 0.725333,-4.87466663 0,0 -7.0186667,0 -7.0186667,0 C 5.7706667,2.6133333 5.184,5.376 4.352,8.5973333 c 0,0 -4.352,18.3999997 -4.352,18.3999997 0,0 7.9573333,0 7.9573333,0 z" />
        </g>
        <g
           style="fill:#663366;fill-opacity:1;fill-rule:evenodd;stroke:none;stroke-width:1.00000003pt;stroke-linecap:butt;stroke-linejoin:miter"
           id="g2915"
           transform="matrix(1.705222,0,0,1.705222,-415.48811,-777.59531)">
          <path
             style="fill:#663366;fill-opacity:1;stroke-width:1.06666669pt"
             id="path2917"
             d="m 0,38.4 c 0,0 7.9573333,0 7.9573333,0 0,0 3.5839997,-14.933333 3.5839997,-14.933333 0,0 12.917334,0 12.917334,0 0,0 1.664,-6.4 1.664,-6.4 0,0 -12.981334,0 -12.981334,0 0,0 2.154667,-9.6000003 2.154667,-9.6000003 0,0 13.813333,0 13.813333,0 0,0 1.664,-7.4666667 1.664,-7.4666667 C 30.773333,0 8.96,0 8.96,0 8.96,0 0,38.4 0,38.4 Z" />
        </g>
        <g
           style="fill:#663366;fill-opacity:1;fill-rule:evenodd;stroke:none;stroke-width:1.00000003pt;stroke-linecap:butt;stroke-linejoin:miter"
           id="g2919"
           transform="matrix(1.705222,0,0,1.705222,-368.28757,-759.40629)">
          <path
             style="fill:#663366;fill-opacity:1;stroke-width:1.06666669pt"
             id="path2921"
             d="m 8.0106667,27.733333 c 0,0 2.3893333,-10.026666 2.3893333,-10.026666 1.258667,-5.429334 3.914667,-10.2400003 8.938667,-10.2400003 0.448,0 0.885333,0.224 1.216,0.2773333 0,0 1.941333,-7.69066667 1.941333,-7.69066667 C 22.048,0.05333333 21.557333,0 21.002667,0 17.301333,0 14.197333,2.6026667 12.128,6.336 c 0,0 -0.213333,0 -0.213333,0 0.309333,-1.824 0.576,-3.552 0.778666,-5.2693333 0,0 -6.8586663,0 -6.8586663,0 -0.384,2.2186666 -1.0026667,6.56 -1.9306667,10.4746663 0,0 -3.904,16.192 -3.904,16.192 0,0 8.0106667,0 8.0106667,0 z" />
        </g>
        <g
           style="fill:#663366;fill-opacity:1;fill-rule:evenodd;stroke:none;stroke-width:1.00000003pt;stroke-linecap:butt;stroke-linejoin:miter"
           id="g2923"
           transform="matrix(1.705222,0,0,1.705222,-330.76352,-759.40629)">
          <path
             style="fill:#663366;fill-opacity:1;stroke-width:1.06666669pt"
             id="path2925"
             d="m 21.397333,20.533333 c -2.208,1.077334 -4.725333,0.8 -7.658666,0.8 -2.314667,0 -4.106667,-0.405333 -5.0880003,-1.194666 -0.512,-0.864 -0.7253334,-2.208 -0.6826667,-3.072 10.805333,0.288 17.621333,-2.208 17.962667,-9.034667 C 26.186667,2.88 22.421333,0 16.949333,0 7.1786667,0 0.77866667,8.6186667 0.36266667,16.917333 0,24.16 3.7653333,27.733333 11.498667,27.733333 c 2.976,0 6.933333,-0.341333 10.154666,-1.312 0,0 -0.256,-5.888 -0.256,-5.888 z M 18.474667,8.032 c -0.128,2.538667 -3.264,2.688 -9.4400003,2.634667 C 9.7066667,8.4373333 11.968,6.4 15.669333,6.4 c 1.824,0 2.869334,0.6933333 2.805334,1.632 z" />
        </g>
        <g
           style="fill:#663366;fill-opacity:1;fill-rule:evenodd;stroke:none;stroke-width:1.00000003pt;stroke-linecap:butt;stroke-linejoin:miter"
           id="g2927"
           transform="matrix(1.705222,0,0,1.705222,-282.52629,-759.40629)">
          <path
             style="fill:#663366;fill-opacity:1;stroke-width:1.06666669pt"
             id="path2929"
             d="m 21.386667,20.533333 c -2.208,1.077334 -4.725334,0.8 -7.648,0.8 -2.325334,0 -4.106667,-0.405333 -5.0880003,-1.194666 -0.512,-0.864 -0.736,-2.208 -0.6933334,-3.072 C 18.773333,17.354667 25.578667,14.858667 25.930667,8.032 26.186667,2.88 22.421333,0 16.949333,0 7.168,0 0.768,8.6186667 0.352,16.917333 0,24.16 3.7546667,27.733333 11.488,27.733333 c 2.986667,0 6.933333,-0.341333 10.165333,-1.312 0,0 -0.266666,-5.888 -0.266666,-5.888 z M 18.474667,8.032 c -0.128,2.538667 -3.264,2.688 -9.450667,2.634667 C 9.7066667,8.4373333 11.957333,6.4 15.658667,6.4 c 1.824,0 2.88,0.6933333 2.816,1.632 z" />
        </g>
        <g
           style="fill:#663366;fill-opacity:1;fill-rule:evenodd;stroke:none;stroke-width:1.00000003pt;stroke-linecap:butt;stroke-linejoin:miter"
           id="g2931"
           transform="matrix(1.705222,0,0,1.705222,-234.54357,-779.41419)">
          <path
             style="fill:#663366;fill-opacity:1;stroke-width:1.06666669pt"
             id="path2933"
             d="m 24.864,0 c 0,0 -2.997333,12.117333 -2.997333,12.117333 -1.088,-0.448 -2.506667,-0.384 -3.616,-0.384 C 8.032,11.733333 0.8,20.48 0.32,29.952 0,36.629333 3.5626667,39.466667 8.1493333,39.466667 c 3.2106667,0 6.5919997,-1.418667 9.1519997,-5.088 0,0 0.106667,0 0.106667,0 0,0 -0.608,5.088 -0.608,5.088 0,0 7.232,0 7.232,0 0.330667,-3.2 1.024,-7.008 1.802667,-10.485334 0,0 6.922666,-28.981333 6.922666,-28.981333 0,0 -7.893333,0 -7.893333,0 z m -6.229333,26.048 c -1.248,5.258667 -4.192,7.018667 -6.517334,7.018667 -2.3146663,0 -3.605333,-1.610667 -3.445333,-4.48 0.2666667,-5.312 3.914667,-10.453334 8.661333,-10.453334 1.333334,0 2.474667,0.202667 3.104,0.501334 0,0 -1.802666,7.413333 -1.802666,7.413333 z" />
        </g>
        <g
           style="fill:#663366;fill-opacity:1;fill-rule:evenodd;stroke:none;stroke-width:1.00000003pt;stroke-linecap:butt;stroke-linejoin:miter"
           id="g2935"
           transform="matrix(1.705222,0,0,1.705222,-180.504,-759.40629)">
          <path
             style="fill:#663366;fill-opacity:1;stroke-width:1.06666669pt"
             id="path2937"
             d="m 11.317333,27.733333 c 9.28,0 16.437334,-7.029333 16.938667,-16.597333 C 28.565333,4.8 24.618667,0 17.333333,0 7.712,0 0.81066667,7.7866667 0.33066667,17.194667 0,24.042667 4.416,27.733333 11.317333,27.733333 Z m 1.248,-6.4 C 9.856,21.333333 8.3626667,19.605333 8.5226667,17.024 8.736,12.725333 11.392,6.4 15.968,6.4 c 3.157333,0 4.128,2.4213333 4,4.8 -0.234667,4.693333 -3.093333,10.133333 -7.402667,10.133333 z" />
        </g>
        <g
           style="fill:#663366;fill-opacity:1;fill-rule:evenodd;stroke:none;stroke-width:1.00000003pt;stroke-linecap:butt;stroke-linejoin:miter"
           id="g2939"
           transform="matrix(1.705222,0,0,1.705222,-128.55605,-759.40629)">
          <path
             style="fill:#663366;fill-opacity:1;stroke-width:1.06666669pt"
             id="path2941"
             d="m 7.68,27.733333 c 0,0 2.88,-12.181333 2.88,-12.181333 1.205333,-5.429333 4.213333,-9.152 6.912,-9.152 1.941333,0 2.474667,1.4186667 2.378667,3.2746667 C 19.797333,10.634667 19.584,11.712 19.36,12.778667 c 0,0 -3.562667,14.954666 -3.562667,14.954666 0,0 7.68,0 7.68,0 0,0 2.88,-12.234666 2.88,-12.234666 C 27.68,9.8986667 30.517333,6.4 33.162667,6.4 c 1.824,0 2.581333,1.3013333 2.496,3.1573333 C 35.605333,10.634667 35.381333,11.818667 35.104,12.896 c 0,0 -3.456,14.837333 -3.456,14.837333 0,0 7.733333,0 7.733333,0 0,0 3.722667,-15.797333 3.722667,-15.797333 0.288,-1.418667 0.618667,-3.6266667 0.672,-4.7573333 C 44.010667,2.4853333 41.717333,0 37.578667,0 34.037333,0 30.592,1.6 27.978667,4.9706667 27.882667,2.5386667 26.144,0 21.834667,0 c -3.488,0 -6.816,1.5786667 -9.482667,5.152 0,0 -0.106667,0 -0.106667,0 0,0 0.714667,-4.0853333 0.714667,-4.0853333 0,0 -6.848,0 -6.848,0 C 5.664,3.3493333 5.12,6.112 4.288,9.3333333 c 0,0 -4.288,18.3999997 -4.288,18.3999997 0,0 7.68,0 7.68,0 z" />
        </g>
      </g>
      <path
         style="fill:#ffffff;fill-opacity:0;fill-rule:evenodd;stroke:#663266;stroke-width:3.50278974;stroke-linecap:butt;stroke-linejoin:miter;stroke-miterlimit:4;stroke-opacity:1"
         d="m 258.42529,823.471 c 0.28444,0.73106 0.56875,1.46101 0.86499,2.1749 0.45625,0.96995 0.98347,1.89839 1.61749,2.76509 3.42454,4.65507 9.15963,7.2039 16.44109,7.83852 0,0 7.83256,0 7.83256,0 2.47651,-0.19323 5.07161,-0.5534 7.76145,-1.07954 4.639,-0.90712 9.55658,-2.30056 14.66374,-4.16278 3.86886,-1.41061 7.84438,-3.0796 11.87906,-5.01938 8.78645,-4.21198 17.86316,-9.64425 26.76807,-16.20001 2.93276,-2.15725 5.7469,-4.37075 8.44867,-6.62152 2.47651,-2.06057 4.85232,-4.15329 7.12159,-6.26901 6.33343,-6.10367 11.11476,-12.30268 13.82238,-17.74578 2.82012,-5.66825 3.38302,-10.5146 1.07235,-13.56765 -1.41597,-1.87403 -3.78593,-2.87833 -6.83715,-3.11466 13.74542,-10.31381 21.75563,-22.82506 18.88217,-30.71327 -0.91248,-2.51741 -2.92093,-4.39558 -5.80036,-5.43421 -1.27971,-0.46026 -2.71942,-0.75188 -4.28953,-0.8846 0,0 -4.23024,0 -4.23024,0 -5.90691,0.42605 -14.49681,2.54116 -21.78425,6.11255"
         id="path2943" />
      <path
         id="path2945"
         style="fill:#663366;fill-opacity:1;fill-rule:evenodd;stroke:none;stroke-width:1.06666669pt;stroke-linecap:butt;stroke-linejoin:miter;stroke-opacity:1"
         d="m 66.962412,728.17747 c 0,0 -24.366283,106.30967 -24.366283,106.30967 0.007,0 64.097511,0 64.111531,0 28.18649,0 112.72409,0 112.72409,0 1.3e-4,0 58.62796,0 58.62796,0 -6.98449,-0.60955 -12.49882,-3.06145 -15.78444,-7.53096 -0.60941,-0.82676 -1.11302,-1.71732 -1.55429,-2.64904 -0.28029,-0.6865 -0.54379,-1.3792 -0.81008,-2.07969 -0.70061,-2.22788 -0.97993,-4.69988 -0.85379,-7.33406 0.35031,-7.34187 3.79531,-16.07497 9.76406,-25.22012 6.34,-9.71876 15.52874,-19.90509 26.90578,-29.35769 2.55005,-2.11706 5.1868,-4.20771 7.9469,-6.23943 3.41175,-2.50998 6.84981,-4.82175 10.28946,-6.98363 12.67306,-7.97867 25.31471,-13.56157 36.51666,-16.39738 -10.70456,3.49223 -22.73046,9.42092 -34.61195,17.49202 -0.42738,0.28857 -0.84941,0.58421 -1.26985,0.87571 -6.59218,4.56764 -12.56445,9.41862 -17.77658,14.31758 -16.77145,15.76958 -25.63605,32.1101 -21.60781,41.68324 0.28723,0.65849 0.62962,1.28726 1.02889,1.88281 4.32947,6.368 15.05935,7.46872 28.65719,4.05002 0.92478,-0.2311 1.84956,-0.49301 2.80222,-0.76624 4.34348,-1.25391 8.95495,-2.9476 13.70475,-5.03521 1.14188,-0.50446 2.29606,-1.02279 3.459,-1.57632 0.11909,-0.056 0.23111,-0.11202 0.35019,-0.17509 14.99201,-7.44901 26.51358,-16.02017 29.0075,-21.16996 0.54647,-1.12021 0.67785,-2.0753 0.30647,-2.82414 -1.77942,-3.60792 -14.23088,-1.17049 -29.31397,5.3636 -1.21189,0.52552 -2.43791,1.06615 -3.67793,1.64195 1.00879,-0.93658 2.05887,-1.87683 3.13061,-2.80221 1.70941,-1.47259 3.47921,-2.91255 5.36372,-4.33472 2.94931,-2.23335 5.931,-4.2524 8.86644,-6.0423 13.74493,-10.36969 20.69362,-20.17881 19.24343,-23.81899 -0.27322,-0.68588 -0.85463,-1.15759 -1.75141,-1.44495 -2.86529,-0.91139 -8.09495,0.17643 -14.44896,2.78042 -5.24026,2.14935 -11.25892,5.33694 -17.36077,9.30429 0,0 -0.83187,0.54733 -0.83187,0.54733 0,0 -0.1533,0.0876 -0.1533,0.0876 0,0 -2.93347,1.94843 -2.93347,1.94843 0,0 1.68566,-3.08677 1.68566,-3.08677 2.50098,-4.57824 6.57476,-9.35495 11.64674,-13.7923 3.71994,-3.24434 7.96978,-6.30117 12.54436,-8.97591 1.73035,-1.01305 3.45815,-1.9539 5.18851,-2.80222 1.77248,-0.86596 3.54569,-1.63549 5.27605,-2.32065 5.02728,-1.98812 10.54991,-4.49884 14.73498,-4.82736 -0.38112,0 -12.47996,1.30273 -12.47996,1.30273 0,0 -39.62536,0 -39.62536,0 0,0 -174.72347,0 -174.72347,0 0,0 -77.947608,0 -77.947608,0 z m 189.795968,0.15329 c -0.6865,10.4782 1.3451,25.82563 5.95475,42.86531 0.81969,3.03199 1.71197,6.11767 2.69276,9.23866 0.60953,1.92724 1.23831,3.82429 1.88279,5.69199 -0.37831,0.55621 -0.75918,1.109 -1.11655,1.66387 -5.75153,8.81433 -9.11337,17.1444 -9.96107,24.38812 -2.43097,-8.14049 -4.26104,-17.05697 -5.29797,-26.51176 -0.29418,-2.70896 -0.52443,-5.38771 -0.67857,-8.03444 -1.13495,-19.22542 1.3748,-36.65328 6.52386,-49.30175 z m -114.78196,13.63888 c 0.13113,-0.003 0.26044,0 0.39402,0 0,0 25.89881,0 25.89881,0 2.21375,0 3.92572,0.41497 5.14467,1.24794 1.21189,0.83784 1.66643,1.92164 1.37919,3.24007 0,0 -3.08677,13.94548 -3.08677,13.94548 0,0 -9.1292,0 -9.1292,0 0,0 2.99923,-13.57325 2.99923,-13.57325 0,0 -22.85562,0 -22.85562,0 0,0 -8.25349,37.30458 -8.25349,37.30458 0,0 -2.97744,13.50774 -2.97744,13.50774 0,0 22.83383,0 22.83383,0 0,0 0.022,-0.0876 0.022,-0.0876 0,0 4.57555,-20.66659 4.57555,-20.66659 0,0 -10.7273,0 -10.7273,0 0,0 1.029,-4.66298 1.029,-4.66298 0,-1.2e-4 19.85639,0 19.85639,0 0,-1.2e-4 -5.69199,25.78922 -5.69199,25.78922 -0.0771,0.36712 -0.21198,0.69965 -0.39414,1.02902 -0.4694,0.85463 -1.28812,1.58666 -2.42999,2.18926 -1.58327,0.83358 -3.47824,1.24781 -5.69212,1.24781 0,0 -25.87677,0 -25.87677,0 -2.21375,0 -3.92572,-0.41423 -5.14479,-1.24781 -1.21189,-0.8337 -1.67343,-1.89838 -1.37919,-3.21828 0,0 11.40602,-51.55665 11.40602,-51.55665 0.29417,-1.31843 1.21189,-2.40223 2.80209,-3.24007 0.0561,-0.0302 0.11921,-0.037 0.17522,-0.0656 1.45152,-0.72704 3.15497,-1.13579 5.12287,-1.18231 z m 40.58861,0 c -1.2e-4,0 32.59776,0 32.59776,0 2.18574,0 3.9038,0.41497 5.12288,1.24794 1.22589,0.83784 1.69529,1.92164 1.40111,3.24007 0,0 -6.08613,27.49693 -6.08613,27.49693 -0.28723,1.31004 -1.22687,2.37886 -2.82414,3.21817 -1.59727,0.8421 -3.47738,1.26972 -5.6702,1.26972 0,0 -23.68761,0 -23.68761,0 0,0 -4.57544,20.64456 -4.57544,20.64456 0,0 -0.74433,3.39336 -0.74433,3.39336 0,0 -8.93218,0 -8.93218,0 0,0 0.6787,-3.06498 0.6787,-3.06498 0,0 12.71958,-57.44577 12.71958,-57.44577 z m 45.03267,0 c 0,0 8.93206,0 8.93206,0 0,0 -10.11425,45.68957 -10.11425,45.68957 0,0 -2.21119,9.98299 -2.21119,9.98299 0,0 21.36709,0 21.36709,0 0.22416,1.63855 0.48594,3.248 0.76624,4.83819 0,0 -32.13811,0 -32.13811,0 0,0 2.53946,-11.47163 2.53946,-11.47163 0,0 10.8587,-49.03912 10.8587,-49.03912 z m -37.17333,4.86024 c 0,0 -5.93295,26.75248 -5.93295,26.75248 0,0 22.26471,0 22.26471,0 0,0 5.91092,-26.75248 5.91092,-26.75248 0,0 -22.24268,0 -22.24268,0 z m -47.4763,63.14056 c 0.0875,-0.003 0.17474,0 0.26277,0 1.0368,0 1.94233,0.18203 2.67083,0.5254 0.7777,0.36431 1.33379,0.90542 1.64197,1.62004 0.30123,0.69355 0.38001,1.48074 0.21892,2.34245 0,0 -0.0656,0.32839 -0.0656,0.32839 0,0 -2.56138,0 -2.56138,0 -1.1e-4,0 0.0218,-0.30647 0.0218,-0.30647 0.0662,-0.60212 -0.009,-1.07552 -0.24071,-1.40111 -0.0303,-0.0408 -0.0742,-0.0947 -0.10959,-0.13139 -0.0577,-0.0591 -0.14453,-0.12638 -0.21881,-0.17509 -0.35846,-0.22587 -0.91905,-0.3503 -1.64195,-0.3503 -0.95985,0 -1.67702,0.16718 -2.16736,0.50347 -0.47645,0.32925 -0.77768,0.69709 -0.87571,1.13848 -0.0981,0.44832 0.0629,0.68394 0.17509,0.80995 0.003,0.003 0.0177,0.018 0.0219,0.0219 0.14197,0.1209 0.63487,0.40462 2.16736,0.76625 1.3871,0.3363 2.30568,0.63839 2.82414,0.89762 0.78463,0.39925 1.3328,0.91686 1.62003,1.55428 0.28724,0.63062 0.35032,1.36873 0.17509,2.16736 -0.17509,0.7777 -0.57178,1.49487 -1.16026,2.16736 -0.58141,0.67249 -1.32136,1.20495 -2.21119,1.57632 -0.88265,0.36431 -1.85114,0.56912 -2.84593,0.56912 -1.26109,0 -2.27341,-0.1908 -3.06498,-0.56912 -0.82665,-0.39231 -1.42303,-1.01146 -1.77322,-1.81716 -0.33631,-0.78451 -0.40814,-1.6752 -0.21905,-2.64893 0,0 0.0657,-0.30647 0.0657,-0.30647 0,0 2.51766,0 2.51766,0 0,0 -0.0219,0.30647 -0.0219,0.30647 -0.063,0.58141 -8.5e-4,1.05081 0.15318,1.40111 0.14721,0.33631 0.42738,0.61477 0.87571,0.83187 0.47645,0.23124 1.07186,0.35032 1.75141,0.35032 0.60954,0 1.16648,-0.1024 1.66387,-0.28456 0.49034,-0.17522 0.8801,-0.40632 1.16027,-0.70062 0.27324,-0.29417 0.43347,-0.60515 0.50349,-0.94134 0.0701,-0.30124 0.0534,-0.55608 -0.0656,-0.76624 -0.13309,-0.22416 -0.3967,-0.423 -0.81008,-0.59103 0,-1.3e-4 -2.14544,-0.63499 -2.14544,-0.63499 -1.19789,-0.30123 -2.00444,-0.58848 -2.47382,-0.87571 -0.63755,-0.37819 -1.0972,-0.86341 -1.33549,-1.44482 -0.23817,-0.57447 -0.26349,-1.21117 -0.10935,-1.90471 0.1611,-0.74263 0.5192,-1.44921 1.07273,-2.07969 0.56047,-0.63755 1.28373,-1.13763 2.14544,-1.46686 0.76185,-0.28566 1.56354,-0.45321 2.40807,-0.48157 z m 22.98713,0.0437 c 0.13856,-0.0107 0.26885,0 0.41594,0 0,0 1.5762,0.17509 1.5762,0.17509 0,0 0.52541,0.0438 0.52541,0.0438 1.1e-4,0 -0.76614,1.94843 -0.76614,1.94843 0,0 -0.15329,0.30647 -0.15329,0.30647 0,0 -1.2041,-0.10946 -1.2041,-0.10946 -0.35555,0 -0.61672,0.0549 -0.78816,0.17522 -0.0113,0.009 -0.0333,0.0346 -0.0437,0.0437 -0.023,0.0202 -0.0617,0.0553 -0.0876,0.0877 -0.10549,0.13821 -0.23378,0.38526 -0.3284,0.83189 0,0 -0.0455,0.18908 -0.0876,0.3503 0.5534,0 1.88268,0 1.88268,0 0,0 -0.48157,2.16736 -0.48157,2.16736 0,0 -1.37664,0 -1.83896,0 -0.14015,0.63048 -1.86089,8.34091 -1.86089,8.34091 0,0 -2.53958,0 -2.53958,0 0,0 1.65072,-7.4092 1.86088,-8.34091 -0.42738,0 -1.46674,0 -1.46674,0 0,0 0.48157,-2.16736 0.48157,-2.16736 0,0 1.04557,0 1.44495,0 0.07,-0.30124 0.17508,-0.6787 0.17508,-0.6787 0.15415,-0.70062 0.31524,-1.20409 0.52541,-1.55441 0.28736,-0.48339 0.6927,-0.88788 1.20409,-1.18217 0.42131,-0.24475 0.95401,-0.39111 1.55441,-0.43786 z m 6.06421,0.10946 c 0,0 -0.66384,2.98705 -0.83187,3.74368 0.49034,0 1.64184,0 1.64184,0 0,0 -0.48157,2.16736 -0.48157,2.16736 0,0 -1.20764,0 -1.64196,0 -0.13308,0.60234 -1.18218,5.27605 -1.18218,5.27605 0,0 -0.0876,0.56131 -0.0876,0.72241 1.2e-4,0.005 -4.8e-4,0.0179 0,0.0219 3.6e-4,0.002 -4.8e-4,0.0205 0,0.0219 6e-4,10e-4 0.0209,-8.5e-4 0.0218,0 0,0 0.26275,0.0218 0.26275,0.0218 0,0 1.2041,-0.0876 1.2041,-0.0876 0,0 -0.13138,1.94843 -0.13138,1.94843 0,0 0.0219,0.3503 0.0219,0.3503 0,0 -1.7295,0.19702 -1.7295,0.19702 -0.6865,0 -1.19011,-0.11203 -1.55441,-0.35031 -0.38525,-0.25217 -0.60942,-0.58664 -0.7005,-1.00697 -0.014,-0.0771 -0.0438,-0.18922 -0.0438,-0.35031 0,-0.31524 0.0595,-0.84855 0.26277,-1.77333 0,0 0.92027,-4.12273 1.11643,-4.99137 -0.32924,0 -1.20397,0 -1.20397,0 0,0 0.48156,-2.16736 0.48156,-2.16736 0,0 0.8538,0 1.2041,0 0.11214,-0.50446 0.50349,-2.23311 0.50349,-2.23311 0,0 2.03609,-1.07272 2.03609,-1.07272 0,0 0.83188,-0.43785 0.83188,-0.43785 z m -80.673638,0.0876 c 0,0 9.851598,0 9.851598,0 0,0 -0.54731,2.45204 -0.54731,2.45204 0,0 -6.572107,0 -7.202614,0 -0.112064,0.4974 -0.561301,2.51146 -0.722432,3.24008 0.910731,0 6.239328,0 6.239328,0 0,0 -0.547317,2.45191 -0.547317,2.45191 0,0 -5.608821,0 -6.239328,0 -0.133109,0.60954 -1.335445,6.02038 -1.335445,6.02038 0,0 -2.648992,0 -2.648992,0 0,0 3.152512,-14.16441 3.152512,-14.16441 z m 13.201148,3.45913 c 0.0988,-0.0122 0.20685,0 0.30647,0 0.6305,0 1.21287,0.19177 1.77331,0.59104 0,0 0.35028,0.24084 0.35028,0.24084 0,0 -1.35734,2.23298 -1.35734,2.23298 0,0 -0.37218,-0.26276 -0.37218,-0.26276 -0.2732,-0.1751 -0.56743,-0.26264 -0.87568,-0.26264 -0.26622,0 -0.51403,0.0946 -0.76623,0.26264 -0.26622,0.17522 -0.48865,0.40729 -0.65676,0.72254 -0.29424,0.5394 -0.50968,1.14358 -0.6568,1.79512 0,0 -1.18221,5.38552 -1.18221,5.38552 0,0 -2.539507,0 -2.539507,0 0,0 2.342517,-10.50827 2.342517,-10.50827 0,0 2.36437,0 2.36437,0 0,0 -0.0815,0.31866 -0.10948,0.43774 0.11212,-0.0841 0.23031,-0.19958 0.32842,-0.26265 0.3393,-0.20248 0.69771,-0.32887 1.05082,-0.3721 z m 7.53099,0 c 0.15291,-0.0116 0.30342,0 0.45975,0 1.42912,0 2.5106,0.50081 3.21817,1.48866 0.44135,0.63742 0.6787,1.42559 0.6787,2.36436 0,0.51835 -0.0639,1.07626 -0.19704,1.68567 0,0 -0.19703,0.76624 -0.19703,0.76624 0,0 -6.42237,0 -7.13696,0 -0.014,0.1471 -0.0219,0.30477 -0.0219,0.43786 0,0.54646 0.11212,0.97641 0.35027,1.29165 0.1132,0.15414 0.24442,0.29296 0.39407,0.39401 0.28218,0.18411 0.64641,0.28469 1.07277,0.28469 0.51839,0 0.97376,-0.14283 1.4011,-0.41594 0.4063,-0.25923 0.79513,-0.67346 1.13841,-1.24793 0,0 2.71466,0 2.71466,0 0,0 -0.24079,0.52539 -0.24079,0.52539 -0.51843,1.05093 -1.24178,1.87051 -2.14549,2.45205 -0.9037,0.5814 -1.98344,0.8975 -3.17441,0.8975 -1.54821,0 -2.70064,-0.50081 -3.4152,-1.48866 -0.70757,-0.96679 -0.85994,-2.30312 -0.48166,-3.98441 0.37835,-1.70941 1.13316,-3.07545 2.23303,-4.02823 0.98584,-0.85478 2.10448,-1.32891 3.34956,-1.42291 z m 11.406,0 c 0.15282,-0.0116 0.30343,0 0.45965,0 1.42924,0 2.51072,0.50081 3.21829,1.48866 0.44137,0.63742 0.67857,1.42559 0.67857,2.36436 0,0.5114 -0.0639,1.06128 -0.19702,1.66375 0,0 -0.197,0.78816 -0.197,0.78816 0,0 -6.42237,0 -7.13693,0 -0.007,0.0981 -0.0149,0.18654 -0.0219,0.28456 -0.005,0.0368 0.002,0.0927 0,0.13138 -2.1e-4,0.006 0,0.0158 0,0.0219 0,0.10506 0.0148,0.20846 0.0219,0.30647 0.035,0.39938 0.13924,0.733 0.32839,0.98518 0.0361,0.0491 0.0699,0.10958 0.10944,0.1533 0.32086,0.34324 0.77499,0.52539 1.35734,0.52539 0.51842,0 0.98075,-0.14282 1.40107,-0.41593 0.40644,-0.25923 0.79522,-0.67346 1.13847,-1.24794 0,0 2.73647,0 2.73647,0 0,0 -0.26264,0.5254 -0.26264,0.5254 -0.51847,1.05092 -1.24173,1.87051 -2.14544,2.45204 -0.90372,0.58141 -1.9835,0.89751 -3.1744,0.89751 -1.54826,0 -2.70069,-0.50081 -3.41524,-1.48867 -0.46235,-0.63048 -0.67865,-1.4335 -0.67865,-2.38628 0,-0.14709 0.007,-0.30562 0.0219,-0.45977 0.0281,-0.36419 0.0841,-0.73204 0.17514,-1.13835 0.37829,-1.70235 1.11125,-3.07546 2.21113,-4.02824 0.9858,-0.85477 2.12633,-1.3289 3.37147,-1.42291 z m 31.06527,0 c 0.15647,-0.0121 0.30039,0 0.45978,0 1.45724,0 2.57721,0.49289 3.30571,1.46674 0.72167,0.97373 0.89676,2.28729 0.52551,3.94057 -0.28723,1.28909 -0.70231,2.33028 -1.26984,3.0869 -0.56742,0.75662 -1.29068,1.37481 -2.14544,1.79513 -0.84759,0.42032 -1.74522,0.63487 -2.64893,0.63487 -1.48525,0 -2.5912,-0.50787 -3.30583,-1.48866 -0.46232,-0.62354 -0.70049,-1.42643 -0.70049,-2.38628 0,-0.51834 0.0569,-1.06919 0.19701,-1.68567 0.42032,-1.87757 1.27849,-3.30753 2.53946,-4.22525 0.92563,-0.66823 1.94794,-1.05422 3.04306,-1.13835 z m 38.46509,0 c 0.18472,-0.0114 0.35567,0 0.54732,0 0.88266,0 1.5762,0.0893 2.10161,0.30647 0.56047,0.22417 0.95802,0.54111 1.18218,0.91942 0.21722,0.35725 0.32839,0.79608 0.32839,1.33548 0,0 -0.26263,1.59812 -0.26263,1.59812 0,0 -0.4817,2.16736 -0.4817,2.16736 -0.41338,1.84944 -0.50433,2.54299 -0.5254,2.80222 -0.021,0.35031 0.0113,0.69174 0.10946,1.0071 0,0 0.1751,0.56911 0.1751,0.56911 0,0 -2.5833,0 -2.5833,0 0,0 -0.10946,-0.32839 -0.10946,-0.32839 -0.042,-0.15404 -0.0298,-0.35018 -0.0437,-0.52541 -0.49046,0.30124 -0.98165,0.56839 -1.42303,0.72241 -0.65154,0.22429 -1.32757,0.35032 -2.01418,0.35032 -1.19083,0 -2.07275,-0.31001 -2.60521,-0.91942 -0.4062,-0.44834 -0.59103,-0.99651 -0.59103,-1.62005 0,-0.23816 0.0316,-0.4851 0.0876,-0.74432 0.11908,-0.53247 0.33546,-1.02548 0.6787,-1.46687 0.3363,-0.43432 0.73385,-0.79157 1.18217,-1.0508 0.43433,-0.25922 0.91857,-0.44308 1.42303,-0.56923 0,0 1.55441,-0.26264 1.55441,-0.26264 1.19789,-0.14015 2.09199,-0.31439 2.73647,-0.50361 0.014,-0.07 0.0438,-0.15317 0.0438,-0.15317 0.10155,-0.45077 0.0889,-0.78962 -0.0219,-0.96326 -0.009,-0.0112 -0.0346,-0.0342 -0.0438,-0.0438 -0.0236,-0.0252 -0.06,-0.0647 -0.0876,-0.0876 -0.26348,-0.20846 -0.71279,-0.30647 -1.31356,-0.30647 -0.67956,0 -1.18218,0.11116 -1.53237,0.32838 -0.34337,0.21711 -0.66117,0.61466 -0.94146,1.18219 0,0 -2.64893,0 -2.64893,0 0,0 0.24073,-0.5254 0.24073,-0.5254 0.31524,-0.72862 0.691,-1.33293 1.16038,-1.79525 0.4694,-0.46233 1.10341,-0.82056 1.83897,-1.07273 0.56364,-0.18605 1.17926,-0.30951 1.83896,-0.35019 z m 11.09943,0 c 0.0989,-0.0122 0.20687,0 0.30647,0 0.63755,0 1.23478,0.19177 1.79525,0.59104 0,0 0.32839,0.24084 0.32839,0.24084 0,0 -1.3574,2.23298 -1.3574,2.23298 0,0 -0.3721,-0.26276 -0.3721,-0.26276 -0.27323,-0.1751 -0.55268,-0.26264 -0.85379,-0.26264 -0.26629,0 -0.52905,0.0946 -0.78817,0.26264 -0.26629,0.17522 -0.45976,0.40729 -0.63486,0.72254 -0.28724,0.5394 -0.50969,1.14358 -0.65679,1.79512 0,0 -1.20409,5.38552 -1.20409,5.38552 0,0 -2.53959,0 -2.53959,0 0,0 2.34257,-10.50827 2.34257,-10.50827 0,0 2.36438,0 2.36438,0 0,0 -0.0595,0.31866 -0.0876,0.43774 0.11203,-0.0841 0.22332,-0.19958 0.3284,-0.26265 0.33387,-0.20248 0.67602,-0.32887 1.02888,-0.3721 z m 7.50915,0 c 0.15269,-0.0116 0.30343,0 0.45966,0 1.42923,0 2.51766,0.50081 3.21827,1.48866 0.44833,0.63742 0.67858,1.42559 0.67858,2.36436 0,0.51835 -0.0858,1.07626 -0.21892,1.68567 0,0 -0.1751,0.76624 -0.1751,0.76624 0,0 -6.42937,0 -7.13693,0 -0.014,0.1471 -0.0438,0.30477 -0.0438,0.43786 0,0.54646 0.1192,0.97641 0.3503,1.29165 0.036,0.0491 0.0917,0.10959 0.13138,0.1533 0.023,0.0244 0.0634,0.0648 0.0876,0.0876 0.31318,0.28469 0.73947,0.43786 1.26974,0.43786 0.51846,0 0.97385,-0.14283 1.40111,-0.41594 0.40644,-0.25923 0.78816,-0.67346 1.13847,-1.24793 0,0 2.73659,0 2.73659,0 0,0 -0.26276,0.52539 -0.26276,0.52539 -0.51846,1.05093 -1.24879,1.87051 -2.14544,2.45205 -0.91077,0.58141 -1.97644,0.8975 -3.17444,0.8975 -1.5482,0 -2.67876,-0.50081 -3.39326,-1.48866 -0.70755,-0.96678 -0.87485,-2.30311 -0.50361,-3.98441 0.37832,-1.7094 1.11132,-3.07545 2.21119,-4.02823 0.992,-0.85477 2.12754,-1.32891 3.37146,-1.42291 z m -38.33371,0.19701 c 0,0 2.60522,0 2.60522,0 0,0 0.32132,6.23578 0.32838,6.32686 0.10507,-0.22332 0.18667,-0.41119 0.19701,-0.43786 0,0 2.86797,-5.889 2.86797,-5.889 0,0 2.38629,0 2.38629,0 0,0 0.21893,6.1604 0.21893,6.19548 0.07,-0.12603 3.26187,-6.19548 3.26187,-6.19548 0,0 2.58329,0 2.58329,0 0,0 -5.69199,10.50827 -5.69199,10.50827 0,0 -2.34244,0 -2.34244,0 0,0 -0.22685,-5.69807 -0.24085,-6.02038 -0.96679,1.98264 -2.9336,6.02038 -2.9336,6.02038 0,0 -2.40821,0 -2.40821,0 0,0 -0.83187,-10.50827 -0.83187,-10.50827 z m -61.16744,1.99214 c -0.60347,0.0255 -1.15157,0.24304 -1.66383,0.65679 -0.40631,0.3223 -0.68042,0.76453 -0.89758,1.24781 0,1.2e-4 4.31279,0 4.31279,0 0.007,-0.0769 0.0219,-0.17071 0.0219,-0.24073 0,-0.39937 -0.0709,-0.70938 -0.19703,-0.91954 -0.3082,-0.50433 -0.76533,-0.74433 -1.4449,-0.74433 -0.0407,0 -0.0911,-0.002 -0.13134,0 z m 11.40593,0 c -0.60346,0.0255 -1.1515,0.24304 -1.66382,0.65679 -0.40631,0.3223 -0.67339,0.76453 -0.89758,1.24781 0,1.2e-4 4.31281,0 4.31281,0 0.007,-0.0769 0.022,-0.17071 0.022,-0.24073 0,-0.39937 -0.0639,-0.70938 -0.19701,-0.91954 -0.0612,-0.1024 -0.14404,-0.20431 -0.21892,-0.28456 -0.2926,-0.3022 -0.69514,-0.45977 -1.22602,-0.45977 -0.0408,0 -0.0911,-0.002 -0.13138,0 z m 88.2266,0 c -0.62062,0.0191 -1.2002,0.22928 -1.72962,0.65679 -0.39926,0.3223 -0.67335,0.76453 -0.89751,1.24781 0,1.2e-4 4.29088,0 4.29088,0 0.007,-0.0769 0.022,-0.17071 0.022,-0.24073 0,-0.39937 -0.0639,-0.70938 -0.19702,-0.91954 -0.30123,-0.4974 -0.76539,-0.73727 -1.44495,-0.74433 -0.02,2.4e-4 -0.0238,-6.1e-4 -0.0437,0 z m -57.35822,0.0438 c -0.5791,0.0687 -1.11765,0.33301 -1.62004,0.78804 -0.60248,0.54646 -1.03948,1.40464 -1.29165,2.53957 -0.10507,0.47633 -0.15329,0.88363 -0.15329,1.24782 0,0.4974 0.0955,0.888 0.28467,1.18218 0.0502,0.0756 0.11714,0.15537 0.17509,0.21893 0.31147,0.3307 0.74629,0.50361 1.29165,0.50361 0.70757,0 1.33111,-0.26362 1.92652,-0.81008 0.60247,-0.55341 1.03242,-1.42035 1.29165,-2.5833 0.23816,-1.0648 0.20492,-1.8599 -0.13138,-2.36436 -0.32219,-0.49034 -0.7934,-0.72241 -1.44484,-0.72241 -0.11054,0 -0.2211,-0.0128 -0.32838,0 z m 39.55961,3.8311 c -0.59542,0.16122 -1.2628,0.29686 -2.14544,0.41607 -0.65849,0.098 -1.12789,0.20138 -1.40111,0.30646 -0.23817,0.098 -0.42994,0.23379 -0.59116,0.41595 -0.15403,0.17509 -0.2574,0.35894 -0.30648,0.56922 -0.014,0.0841 -0.0219,0.17071 -0.0219,0.24073 0,0.005 -1.3e-4,0.0163 0,0.0219 7.2e-4,0.0166 -0.002,0.0496 0,0.0657 0.004,0.0317 0.0132,0.0798 0.0219,0.10935 0.003,0.01 0.0182,0.0343 0.0219,0.0438 0.007,0.0189 0.0124,0.0478 0.022,0.0657 0.01,0.0177 0.032,0.0485 0.0437,0.0656 0.0183,0.0252 0.0433,0.0639 0.0657,0.0876 0.1751,0.19616 0.52455,0.28455 1.02889,0.28455 0.55353,0 1.08587,-0.10507 1.57632,-0.35019 0.4834,-0.23828 0.87303,-0.59383 1.16027,-1.00709 0.21016,-0.29418 0.37831,-0.74701 0.5254,-1.33548 z M 60.213313,802.18118 118.96809,741.51773 h 9.59485 l -14.18645,60.66345 h -7.89187 l 4.02809,-17.46246 H 85.881762 l -16.738167,17.46246 h -8.930282 m 31.654058,-23.71089 h 20.145049 l 3.71679,-15.22792 c 1.50004,-6.04147 2.94395,-11.07607 4.33175,-15.10379 -2.77341,3.47598 -6.44268,7.60021 -11.00781,12.37268 l -17.185779,17.95903" />
    </g>
  </g>
</svg>
