<?xml version="1.0" encoding="UTF-8" standalone="no"?>
<svg
   xmlns:dc="http://purl.org/dc/elements/1.1/"
   xmlns:cc="http://creativecommons.org/ns#"
   xmlns:rdf="http://www.w3.org/1999/02/22-rdf-syntax-ns#"
   xmlns:svg="http://www.w3.org/2000/svg"
   xmlns="http://www.w3.org/2000/svg"
   id="svg4841"
   version="1.1"
   viewBox="0 0 75.191345 37.356823"
   height="37.356823mm"
   width="75.191345mm">
  <defs
     id="defs4835" />
  <metadata
     id="metadata4838">
    <rdf:RDF>
      <cc:Work
         rdf:about="">
        <dc:format>image/svg+xml</dc:format>
        <dc:type
           rdf:resource="http://purl.org/dc/dcmitype/StillImage" />
        <dc:title></dc:title>
      </cc:Work>
    </rdf:RDF>
  </metadata>
  <g
     transform="translate(93.536149,-102.94063)"
     id="layer1">
    <g
       id="g68"
       transform="matrix(0.16714324,0,0,0.16714324,-57.945703,125.56359)"
       style="fill:#000000;fill-opacity:0.94117647;fill-rule:evenodd;stroke:none;stroke-width:1.00000003pt;stroke-linecap:butt;stroke-linejoin:miter">
      <path
         id="path70"
         d="m 4.1173333,0 c 0,0 -0.010667,0 -0.010667,0 -1.0026667,0 -1.888,0.33066667 -2.72,1.0026667 C 0.768,1.4933333 0.34133333,2.1546667 0,2.8906667 c 0,0 0.04266667,0 0.04266667,0 0.34133333,-0.736 0.768,-1.3973334 1.37600003,-1.888 C 2.2506667,0.33066667 3.136,0.01066667 4.1173333,0 Z"
         style="fill:#000000;fill-opacity:0.94117647;stroke-width:1.06666669pt" />
    </g>
    <path
       d="m -85.122036,104.08374 c 2e-6,0 -6.201012,27.05491 -6.201012,27.05491 0.0018,0 0.002,0 0.0056,0 0,0 28.687346,0 28.687346,0 0,0 14.920317,0 14.920317,0 -1.777513,-0.1551 -3.180845,-0.77911 -4.017007,-1.91657 -0.155107,-0.21038 -0.283253,-0.43702 -0.395574,-0.67415 -0.07131,-0.17471 -0.138395,-0.351 -0.206144,-0.52928 -0.17829,-0.56695 -0.249378,-1.19608 -0.217287,-1.86643 0.08915,-1.86844 0.965867,-4.09096 2.484866,-6.4183 1.613488,-2.47337 3.951933,-5.06569 6.847298,-7.4713 0.648959,-0.53879 1.319985,-1.07084 2.022433,-1.58787 0.868251,-0.63879 1.743194,-1.22709 2.618578,-1.77729 3.225194,-2.0305 6.442366,-3.4513 9.293162,-4.173 -2.724209,0.88875 -5.784713,2.39754 -8.808446,4.45158 -0.108751,0.0734 -0.21617,0.14869 -0.323143,0.22285 -1.677673,1.16243 -3.197561,2.39697 -4.524008,3.64373 -4.268171,4.01322 -6.524156,8.17174 -5.499012,10.60802 0.0731,0.16759 0.160234,0.3276 0.261855,0.47914 1.101807,1.62062 3.832485,1.90075 7.293018,1.03072 0.235336,-0.0588 0.470672,-0.12547 0.713142,-0.195 1.105373,-0.31914 2.278943,-0.75014 3.487721,-1.28143 0.290605,-0.12837 0.584335,-0.2603 0.880287,-0.40115 0.03031,-0.0143 0.05884,-0.0285 0.08914,-0.0446 3.815323,-1.89571 6.747462,-4.077 7.382161,-5.38758 0.139065,-0.28508 0.172489,-0.52813 0.078,-0.71872 -0.452845,-0.91817 -3.621659,-0.29787 -7.46016,1.36501 -0.308435,0.13371 -0.620435,0.2713 -0.936001,0.41786 0.256731,-0.23837 0.523939,-0.47763 0.796716,-0.71315 0.435018,-0.37476 0.885413,-0.74122 1.365002,-1.10314 0.750585,-0.56838 1.509418,-1.0822 2.256435,-1.53772 3.497972,-2.63899 5.266349,-5.13535 4.897297,-6.06173 -0.06954,-0.17454 -0.217511,-0.29462 -0.445717,-0.36771 -0.729194,-0.23195 -2.060096,0.0449 -3.67715,0.70757 -1.333579,0.54698 -2.865279,1.35823 -4.41815,2.36786 0,0 -0.211717,0.13929 -0.211717,0.13929 0,0 -0.039,0.0223 -0.039,0.0223 0,0 -0.746573,0.49586 -0.746573,0.49586 -5e-6,0 0.428998,-0.78557 0.428998,-0.78557 0.636485,-1.1651 1.673218,-2.38075 2.964006,-3.51001 0.9467,-0.82564 2.02823,-1.60359 3.192439,-2.28429 0.440367,-0.2578 0.880062,-0.49724 1.320429,-0.71314 0.451067,-0.22037 0.902351,-0.41621 1.342718,-0.59058 1.279396,-0.50597 2.500678,-0.8134 3.565721,-0.897 -0.09699,0 -2.991863,0 -2.991863,0 2e-6,0 -10.084306,0 -10.084306,0 0,0 -44.465667,0 -44.465667,0 0,0 -3.526722,0 -3.526722,0 z m 31.99121,0.039 c -0.174715,2.66663 0.342309,6.57243 1.515435,10.90888 0.208592,0.77162 0.435684,1.55688 0.685287,2.35115 0.155109,0.49046 0.315121,0.97326 0.479142,1.44857 -0.09627,0.14156 -0.193218,0.28223 -0.284144,0.42343 -1.463726,2.2432 -2.31928,4.36311 -2.535005,6.20659 -0.618654,-2.07169 -1.084424,-4.34087 -1.348288,-6.74702 -0.07488,-0.68943 -0.133493,-1.37115 -0.172714,-2.04471 -0.288827,-4.89271 0.349885,-9.32793 1.660287,-12.54689 z m -29.21106,3.47101 c 0.03339,-8e-4 0.0663,0 0.100285,0 0,0 6.591014,0 6.591014,0 0.563385,0 0.999071,0.10559 1.309288,0.31757 0.308434,0.21323 0.424099,0.48904 0.351,0.82457 2e-6,1e-5 -0.785572,3.54901 -0.785572,3.54901 0,0 -2.32329,0 -2.32329,0 2e-6,0 0.763287,-3.45429 0.763287,-3.45429 -2e-6,0 -5.816583,0 -5.816583,0 -2e-6,0 -2.100434,9.49373 -2.100434,9.49373 2e-6,0 -0.757716,3.43758 -0.757716,3.43758 0,0 5.811013,0 5.811013,0 0,0 0.0056,-0.0223 0.0056,-0.0223 0,0 1.16443,-5.25944 1.16443,-5.25944 0,0 -2.730005,0 -2.730005,0 0,0 0.261857,-1.18672 0.261857,-1.18672 -10e-7,0 5.053297,0 5.053297,0 0,0 -1.448575,6.56316 -1.448575,6.56316 -0.01961,0.0934 -0.05393,0.17806 -0.100286,0.26186 -0.119451,0.21751 -0.327823,0.40382 -0.618429,0.55714 -0.402924,0.21217 -0.885191,0.31757 -1.448575,0.31757 0,1e-5 -6.585442,0 -6.585442,0 -0.563386,1e-5 -0.999071,-0.10541 -1.309289,-0.31757 -0.308432,-0.21215 -0.425881,-0.48311 -0.351,-0.819 10e-7,0 2.902719,-13.12074 2.902719,-13.12074 0.07488,-0.33553 0.308437,-0.61135 0.713145,-0.82457 0.01426,-0.008 0.03031,-0.009 0.04457,-0.0167 0.36936,-0.18502 0.802874,-0.28903 1.30369,-0.30085 z m 10.32945,0 c -3e-6,0 8.295876,0 8.295876,0 0.556252,0 0.993498,0.10559 1.303716,0.31757 0.312002,0.21323 0.431454,0.48904 0.356571,0.82457 3e-6,1e-5 -1.548857,6.99773 -1.548857,6.99773 -0.0731,0.3334 -0.312227,0.60542 -0.718717,0.819 -0.406493,0.2143 -0.884971,0.32315 -1.443003,0.32315 0,0 -6.028299,0 -6.028299,0 0,0 -1.164431,5.25387 -1.164431,5.25387 0,0 -0.189429,0.86357 -0.189429,0.86357 0,0 -2.273149,0 -2.273149,0 0,0 0.172714,-0.78 0.172714,-0.78 0,0 3.237008,-14.61946 3.237008,-14.61946 z m 11.460452,0 c 0,0 2.273149,0 2.273149,0 3e-6,0 -2.574004,11.62759 -2.574004,11.62759 2e-6,1e-5 -0.562716,2.54058 -0.562716,2.54058 0,0 5.437725,0 5.437725,0 0.05705,0.41701 0.123687,0.82658 0.195003,1.23129 -3e-6,0 -8.178877,0 -8.178877,0 3e-6,0 0.646284,-2.91944 0.646284,-2.91944 3e-6,0 2.763436,-12.48002 2.763436,-12.48002 z m -9.460305,1.23686 c 3e-6,0 -1.509861,6.8083 -1.509861,6.8083 0,0 5.666156,0 5.666156,0 0,0 1.504289,-6.8083 1.504289,-6.8083 0,0 -5.660584,0 -5.660584,0 z m -4.763582,15.23232 c 0.02224,-8e-4 0.04446,0 0.06686,0 0.263864,0 0.494297,0.0464 0.679715,0.13371 0.197898,0.0927 0.339413,0.23043 0.417859,0.41229 0.07666,0.1765 0.09672,0.37685 0.05571,0.59614 0,0 -0.01671,0.0836 -0.01671,0.0836 10e-7,0 -0.651859,0 -0.651859,0 -2e-6,0 0.0056,-0.078 0.0056,-0.078 0.01685,-0.15321 -0.0021,-0.2737 -0.06129,-0.35657 -0.0077,-0.0104 -0.01888,-0.0241 -0.02786,-0.0334 -0.01471,-0.015 -0.0368,-0.0322 -0.05571,-0.0446 -0.09121,-0.0575 -0.233888,-0.0891 -0.417859,-0.0891 -0.244251,0 -0.426771,0.0426 -0.551571,0.12814 -0.121236,0.0838 -0.197898,0.1774 -0.222858,0.28972 -0.02496,0.1141 0.01604,0.17405 0.04457,0.20614 8.73e-4,8e-4 0.0045,0.005 0.0056,0.006 0.03612,0.0308 0.161572,0.10296 0.551572,0.195 0.353005,0.0856 0.586785,0.16246 0.718717,0.22843 0.199682,0.10162 0.339189,0.23333 0.412288,0.39557 0.07309,0.16046 0.08914,0.34833 0.04457,0.55157 -0.04457,0.1979 -0.145526,0.38042 -0.295287,0.55158 -0.147976,0.17115 -0.336292,0.30665 -0.562716,0.40114 -0.224643,0.0927 -0.47112,0.14486 -0.724287,0.14486 -0.320915,0 -0.578537,-0.0486 -0.780001,-0.14486 -0.210379,-0.0998 -0.362145,-0.2574 -0.451287,-0.46243 -0.08558,-0.19968 -0.103852,-0.42633 -0.05571,-0.67414 0,-1e-5 0.01672,-0.078 0.01672,-0.078 0,0 0.640716,0 0.640716,0 0,0 -0.0056,0.078 -0.0056,0.078 -0.01605,0.14798 -2.23e-4,0.26743 0.039,0.35657 0.03744,0.0856 0.108755,0.15645 0.222857,0.21172 0.121233,0.0588 0.272777,0.0891 0.445715,0.0891 0.155109,0 0.296848,-0.0261 0.42343,-0.0724 0.1248,-0.0446 0.223972,-0.10341 0.295286,-0.17829 0.06953,-0.0749 0.110315,-0.15399 0.128144,-0.23957 0.01783,-0.0767 0.01359,-0.14151 -0.01672,-0.195 -0.03387,-0.0571 -0.100954,-0.10764 -0.206142,-0.15043 0,0 -0.546003,-0.16157 -0.546003,-0.16157 -0.304868,-0.0767 -0.510119,-0.14976 -0.629571,-0.22286 -0.162243,-0.0963 -0.279241,-0.21974 -0.339859,-0.36771 -0.06062,-0.1462 -0.06708,-0.30822 -0.02786,-0.48472 0.04101,-0.18898 0.132153,-0.36883 0.272999,-0.52929 0.142631,-0.16224 0.326709,-0.28949 0.546002,-0.37328 0.193887,-0.0727 0.397925,-0.11535 0.612857,-0.12257 z m 5.850011,0.0111 c 0.03526,-0.003 0.06842,0 0.10586,0 0,0 0.401143,0.0446 0.401143,0.0446 0,0 0.133712,0.0111 0.133712,0.0111 3e-6,0 -0.194998,0.49585 -0.194998,0.49585 -2e-6,0 -0.039,0.078 -0.039,0.078 0,0 -0.30643,-0.0279 -0.30643,-0.0279 -0.09048,0 -0.156945,0.014 -0.200573,0.0446 -0.0029,0.002 -0.0085,0.009 -0.01114,0.0111 -0.0058,0.005 -0.01566,0.0141 -0.0223,0.0223 -0.02684,0.0352 -0.0595,0.0981 -0.08357,0.21172 -3e-6,0 -0.01159,0.0481 -0.0223,0.0891 0.140846,0 0.479142,0 0.479142,0 0,0 -0.122571,0.55157 -0.122571,0.55157 0,0 -0.350332,0 -0.468003,0 -0.03566,0.16045 -0.473569,2.12272 -0.473569,2.12272 -3e-6,-1e-5 -0.64629,0 -0.64629,0 0,-1e-5 0.420087,-1.8856 0.473575,-2.12272 -0.108757,0 -0.373287,0 -0.373287,0 0,0 0.12257,-0.55157 0.12257,-0.55157 0,0 0.266092,0 0.367716,0 0.01783,-0.0767 0.04457,-0.17272 0.04457,-0.17272 0.03922,-0.17828 0.08023,-0.30643 0.133715,-0.39557 0.0731,-0.12302 0.176281,-0.22598 0.306432,-0.30086 0.107196,-0.0623 0.242769,-0.0995 0.395571,-0.11143 z m 1.543291,0.0279 c -2e-6,0 -0.168926,0.76017 -0.211714,0.95271 0.124799,0 0.417859,0 0.417859,0 0,0 -0.122574,0.55157 -0.122574,0.55157 -2e-6,0 -0.307318,0 -0.417859,0 -0.03387,0.15333 -0.300855,1.34272 -0.300855,1.34272 3e-6,0 -0.0223,0.14285 -0.0223,0.18386 2.9e-5,0.001 -1.11e-4,0.005 0,0.006 8.7e-5,2.7e-4 -1.24e-4,0.005 0,0.006 1.72e-4,2.7e-4 0.0054,-2.2e-4 0.0056,0 0,0 0.06686,0.006 0.06686,0.006 0,0 0.306428,-0.0223 0.306428,-0.0223 0,0 -0.03343,0.49586 -0.03343,0.49586 3e-6,0 0.0056,0.0891 0.0056,0.0891 -2e-6,0 -0.440145,0.0501 -0.440145,0.0501 -0.174717,-10e-6 -0.302863,-0.0285 -0.39557,-0.0891 -0.09805,-0.0642 -0.15511,-0.14932 -0.178287,-0.25629 -0.0035,-0.0196 -0.01114,-0.0481 -0.01114,-0.0891 0,-0.0802 0.01516,-0.21595 0.06686,-0.45129 0,1e-5 0.23422,-1.04921 0.284144,-1.27029 -0.08379,0 -0.306432,0 -0.306432,0 2e-6,0 0.12257,-0.55157 0.12257,-0.55157 -2e-6,0 0.217287,0 0.30643,0 0.02853,-0.12836 0.128143,-0.56829 0.128143,-0.56829 0,10e-6 0.518147,-0.273 0.518147,-0.273 0,0 0.211714,-0.11143 0.211714,-0.11143 z m -20.530758,0.0223 c 2e-6,0 2.507148,0 2.507148,0 0,0 -0.139285,0.624 -0.139285,0.624 0,0 -1.672547,0 -1.833004,0 -0.02852,0.12658 -0.142852,0.63915 -0.183858,0.82457 0.231773,0 1.587861,0 1.587861,0 0,0 -0.139287,0.624 -0.139287,0.624 -10e-7,0 -1.427402,0 -1.587861,0 -0.03387,0.15511 -0.339857,1.53215 -0.339857,1.53215 10e-7,0 -0.674144,0 -0.674144,0 10e-7,0 0.802287,-3.60472 0.802287,-3.60472 z m 3.359577,0.88029 c 0.02516,-0.003 0.05265,0 0.078,0 0.160458,0 0.308658,0.0488 0.451288,0.15043 0,0 0.08914,0.0613 0.08914,0.0613 0,0 -0.345429,0.56828 -0.345429,0.56828 0,0 -0.09471,-0.0669 -0.09471,-0.0669 -0.06953,-0.0446 -0.144412,-0.0669 -0.222858,-0.0669 -0.06775,0 -0.130818,0.0241 -0.195001,0.0669 -0.06775,0.0446 -0.124355,0.10363 -0.167142,0.18386 -0.07488,0.13728 -0.129704,0.29105 -0.167144,0.45686 0,0 -0.300858,1.37057 -0.300858,1.37057 0,0 -0.646287,0 -0.646287,0 0,0 0.596145,-2.67428 0.596145,-2.67428 2e-6,0 0.601715,0 0.601715,0 0,0 -0.02073,0.0811 -0.02786,0.11142 0.02853,-0.0214 0.05861,-0.0508 0.08357,-0.0669 0.08636,-0.0515 0.177569,-0.0837 0.267428,-0.0947 z m 1.916577,0 c 0.03891,-0.003 0.07722,0 0.117001,0 0.363705,0 0.638932,0.12747 0.819,0.37885 0.11232,0.16224 0.172717,0.36282 0.172717,0.60172 0,0.13193 -0.01627,0.27389 -0.05014,0.429 0,0 -0.05015,0.195 -0.05015,0.195 0,0 -1.634436,0 -1.816289,0 -0.0036,0.0374 -0.0056,0.0776 -0.0056,0.11143 0,0.13906 0.02853,0.24848 0.08914,0.32872 0.02881,0.0392 0.0622,0.0746 0.100287,0.10028 0.0718,0.0468 0.164497,0.0724 0.273,0.0724 0.131933,0 0.247817,-0.0363 0.356572,-0.10586 0.103408,-0.066 0.202356,-0.17137 0.289715,-0.31757 0,0 0.690859,0 0.690859,0 0,0 -0.06128,0.13371 -0.06128,0.13371 -0.131933,0.26743 -0.316013,0.47603 -0.546002,0.62401 -0.229989,0.14797 -0.504773,0.22842 -0.80786,0.22842 -0.394012,0 -0.687293,-0.12747 -0.869145,-0.37885 -0.180068,-0.24604 -0.218845,-0.58612 -0.122571,-1.01401 0.09628,-0.43501 0.288378,-0.78267 0.568287,-1.02514 0.250884,-0.21754 0.535568,-0.33819 0.85243,-0.36214 z m 2.902721,0 c 0.03891,-0.003 0.07722,0 0.116999,0 0.363706,0 0.638934,0.12747 0.819003,0.37885 0.11232,0.16224 0.172714,0.36282 0.172714,0.60172 0,0.13015 -0.01627,0.2701 -0.05014,0.42343 0,0 -0.05014,0.20057 -0.05014,0.20057 0,0 -1.634439,0 -1.81629,0 -0.0018,0.025 -0.0038,0.0475 -0.0056,0.0724 -0.0013,0.009 5.82e-4,0.0236 0,0.0334 -5.2e-5,0.002 0,0.004 0,0.006 0,0.0268 0.0038,0.053 0.0056,0.078 0.0089,0.10163 0.03543,0.18653 0.08357,0.25072 0.0092,0.0125 0.01778,0.0279 0.02786,0.039 0.08166,0.0874 0.197229,0.13371 0.34543,0.13371 0.131933,0 0.249601,-0.0363 0.356573,-0.10586 0.103407,-0.066 0.202354,-0.17138 0.289714,-0.31757 0,0 0.69643,0 0.69643,0 -10e-7,0 -0.06686,0.13372 -0.06686,0.13372 -0.131932,0.26743 -0.316012,0.47602 -0.546001,0.624 -0.22999,0.14797 -0.504773,0.22842 -0.807858,0.22842 -0.394012,0 -0.687293,-0.12747 -0.869146,-0.37885 -0.117669,-0.16046 -0.172715,-0.36482 -0.172715,-0.60729 0,-0.0374 0.002,-0.0778 0.0056,-0.117 0.0071,-0.0927 0.02139,-0.18631 0.04457,-0.28971 0.09628,-0.43324 0.282807,-0.78268 0.562715,-1.02515 0.250882,-0.21754 0.54114,-0.33819 0.858003,-0.36214 z m 7.905872,0 c 0.03982,-0.003 0.07644,0 0.117002,0 0.370835,0 0.65587,0.12546 0.841288,0.37328 0.183636,0.24782 0.228205,0.5821 0.133712,1.00286 -0.0731,0.32805 -0.178729,0.59302 -0.323141,0.78557 -0.144415,0.19255 -0.328493,0.34989 -0.546002,0.45686 -0.215723,0.10697 -0.444156,0.16157 -0.674145,0.16157 -0.377966,0 -0.659435,-0.12925 -0.841288,-0.37885 -0.11767,-0.15868 -0.178286,-0.36304 -0.178286,-0.60729 3e-6,-0.13193 0.01449,-0.27211 0.05014,-0.429 0.106973,-0.47781 0.325371,-0.84173 0.646287,-1.07529 0.235559,-0.17004 0.495701,-0.26829 0.774429,-0.28971 z m 9.789024,0 c 0.04701,-0.003 0.09053,0 0.139284,0 0.224642,0 0.401146,0.0227 0.534861,0.078 0.142629,0.0571 0.243805,0.13772 0.300855,0.234 0.05527,0.0909 0.08357,0.20258 0.08357,0.33985 2e-6,0 -0.06686,0.40672 -0.06686,0.40672 2e-6,0 -0.122569,0.55157 -0.122569,0.55157 -0.105193,0.47068 -0.128365,0.64718 -0.133717,0.71315 -0.0054,0.0891 0.0029,0.17605 0.02785,0.25628 3e-6,0 0.04457,0.14486 0.04457,0.14486 2e-6,0 -0.657432,0 -0.657432,0 0,0 -0.02786,-0.0836 -0.02786,-0.0836 -0.01069,-0.0392 -0.0076,-0.0891 -0.01114,-0.13371 -0.124799,0.0767 -0.249822,0.14463 -0.362143,0.18385 -0.165804,0.0571 -0.337849,0.0891 -0.512572,0.0891 -0.303083,0 -0.527503,-0.0789 -0.663001,-0.234 -0.103407,-0.1141 -0.150429,-0.25361 -0.150429,-0.41229 -3e-6,-0.0606 0.008,-0.12346 0.0223,-0.18942 0.03031,-0.1355 0.08535,-0.26097 0.172715,-0.37329 0.08558,-0.11054 0.186756,-0.20146 0.300858,-0.26743 0.11054,-0.066 0.233778,-0.11276 0.362143,-0.14486 -3e-6,0 0.395573,-0.0669 0.395573,-0.0669 0.304869,-0.0357 0.532405,-0.08 0.696431,-0.12814 0.0035,-0.0178 0.01114,-0.039 0.01114,-0.039 0.02585,-0.11471 0.0226,-0.20093 -0.0056,-0.24514 -0.0019,-0.003 -0.0088,-0.009 -0.01114,-0.0111 -0.006,-0.006 -0.01527,-0.0165 -0.0223,-0.0223 -0.06706,-0.0531 -0.181407,-0.078 -0.334288,-0.078 -0.172937,0 -0.300858,0.0283 -0.389999,0.0836 -0.08736,0.0553 -0.168259,0.15644 -0.239575,0.30086 0,-10e-6 -0.674142,0 -0.674142,0 3e-6,-10e-6 0.06129,-0.13372 0.06129,-0.13372 0.08022,-0.18542 0.175832,-0.33919 0.295286,-0.45686 0.119448,-0.11767 0.280799,-0.20881 0.468,-0.27299 0.143462,-0.0474 0.300117,-0.0788 0.468,-0.0891 z m 2.82472,0 c 0.02514,-0.003 0.05265,0 0.078,0 0.162237,0 0.314229,0.0488 0.456858,0.15043 0,0 0.08357,0.0613 0.08357,0.0613 0,0 -0.34543,0.56828 -0.34543,0.56828 0,0 -0.09472,-0.0669 -0.09472,-0.0669 -0.06953,-0.0446 -0.140624,-0.0669 -0.217287,-0.0669 -0.06775,0 -0.134604,0.0241 -0.200572,0.0669 -0.06775,0.0446 -0.116999,0.10363 -0.161568,0.18386 -0.0731,0.13728 -0.129707,0.29105 -0.167148,0.45686 0,0 -0.306427,1.37057 -0.306427,1.37057 2e-6,0 -0.646287,0 -0.646287,0 0,0 0.596143,-2.67428 0.596143,-2.67428 -3e-6,0 0.601715,0 0.601715,0 0,0 -0.01516,0.0811 -0.0223,0.11142 0.02852,-0.0214 0.05683,-0.0508 0.08357,-0.0669 0.08496,-0.0515 0.172061,-0.0837 0.261856,-0.0947 z m 1.911001,0 c 0.03888,-0.003 0.07722,0 0.117002,0 0.363706,0 0.640715,0.12747 0.819004,0.37885 0.114102,0.16224 0.172715,0.36282 0.172715,0.60172 -6e-6,0.13193 -0.02185,0.27389 -0.05572,0.429 0,0 -0.04457,0.195 -0.04457,0.195 0,0 -1.63622,0 -1.81629,0 -0.0035,0.0374 -0.01114,0.0776 -0.01114,0.11143 0,0.13906 0.03031,0.24848 0.08914,0.32872 0.0092,0.0125 0.02331,0.0279 0.03343,0.039 0.0058,0.006 0.01611,0.0165 0.0223,0.0223 0.07971,0.0725 0.188177,0.11142 0.323143,0.11142 0.131935,0 0.247817,-0.0363 0.356571,-0.10586 0.10341,-0.066 0.200576,-0.17137 0.289717,-0.31756 0,-1e-5 0.696431,0 0.696431,0 0,-1e-5 -0.06686,0.13371 -0.06686,0.13371 -0.131935,0.26743 -0.317794,0.47602 -0.546002,0.624 -0.23177,0.14798 -0.502989,0.22843 -0.807858,0.22843 -0.394012,0 -0.681722,-0.12748 -0.863573,-0.37886 -0.18007,-0.24604 -0.222637,-0.58611 -0.128146,-1.014 0.09627,-0.43502 0.282811,-0.78268 0.562719,-1.02515 0.25247,-0.21753 0.541427,-0.33819 0.857998,-0.36214 z m -9.755592,0.0501 c 3e-6,0 0.663003,0 0.663003,0 3e-6,0 0.08179,1.58696 0.08357,1.61014 0.02675,-0.0568 0.04749,-0.10464 0.05014,-0.11143 0,1e-5 0.729859,-1.49871 0.729859,-1.49871 0,0 0.607285,0 0.607285,0 0,0 0.05572,1.5678 0.05572,1.57671 0.01783,-0.0321 0.830143,-1.57671 0.830143,-1.57671 -2e-6,0 0.657432,0 0.657432,0 0,0 -1.448576,2.67429 -1.448576,2.67429 3e-6,-1e-5 -0.596143,0 -0.596143,0 0,-1e-5 -0.05772,-1.45014 -0.06128,-1.53215 -0.246039,0.50455 -0.746575,1.53215 -0.746575,1.53215 0,-1e-5 -0.612857,0 -0.612857,0 0,-1e-5 -0.211717,-2.67429 -0.211717,-2.67429 z m -15.566603,0.507 c -0.153581,0.007 -0.293057,0.0618 -0.423428,0.16714 -0.103405,0.082 -0.173162,0.19455 -0.228431,0.31757 0,0 1.097574,0 1.097574,0 0.0018,-0.0196 0.0056,-0.0435 0.0056,-0.0613 -2e-6,-0.10162 -0.01805,-0.18051 -0.05014,-0.234 -0.07844,-0.12836 -0.194777,-0.18943 -0.367715,-0.18943 -0.01036,0 -0.02319,-5.3e-4 -0.03343,0 z m 2.902719,0 c -0.15358,0.007 -0.293056,0.0618 -0.423429,0.16714 -0.103407,0.082 -0.171376,0.19455 -0.228427,0.31757 0,0 1.097572,0 1.097572,0 0.0018,-0.0196 0.0056,-0.0435 0.0056,-0.0613 -10e-7,-0.10162 -0.01627,-0.18051 -0.05014,-0.234 -0.01557,-0.0261 -0.03664,-0.052 -0.05571,-0.0724 -0.07444,-0.0769 -0.176894,-0.117 -0.312,-0.117 -0.01036,0 -0.02319,-5.3e-4 -0.03343,0 z m 22.452906,0 c -0.157932,0.005 -0.305424,0.0583 -0.440142,0.16714 -0.101626,0.082 -0.171379,0.19455 -0.228431,0.31757 3e-6,0 1.092002,0 1.092002,0 0.0016,-0.0196 0.0056,-0.0435 0.0056,-0.0613 0,-0.10162 -0.01625,-0.18051 -0.05014,-0.234 -0.07666,-0.12658 -0.194778,-0.18764 -0.367715,-0.18943 -0.0051,6e-5 -0.006,-1.6e-4 -0.01114,0 z m -14.597174,0.0111 c -0.147381,0.0175 -0.284421,0.0847 -0.412287,0.20057 -0.153324,0.13906 -0.264531,0.35746 -0.328713,0.64629 -0.02674,0.12123 -0.039,0.22486 -0.039,0.31757 3e-6,0.12658 0.02429,0.22598 0.07243,0.30086 0.01282,0.0192 0.02981,0.0395 0.04457,0.0557 0.07926,0.0841 0.189931,0.12814 0.328715,0.12814 0.180068,0 0.338744,-0.0671 0.490287,-0.20615 0.153329,-0.14084 0.262747,-0.36147 0.328713,-0.65743 0.06062,-0.27099 0.05215,-0.47335 -0.03343,-0.60171 -0.08201,-0.1248 -0.201908,-0.18386 -0.367712,-0.18386 -0.02814,0 -0.05628,-0.003 -0.08357,0 z m 10.067595,0.975 c -0.151543,0.041 -0.321363,0.0756 -0.546002,0.10586 -0.167587,0.025 -0.287041,0.0512 -0.356574,0.078 -0.06061,0.0249 -0.109421,0.0595 -0.150429,0.10586 -0.03922,0.0446 -0.06552,0.0914 -0.078,0.14485 -0.0035,0.0214 -0.0056,0.0435 -0.0056,0.0613 0,0.001 -2.9e-5,0.004 0,0.006 1.91e-4,0.004 -5.29e-4,0.0126 0,0.0167 0.0011,0.008 0.0034,0.0203 0.0056,0.0279 7.94e-4,0.003 0.0047,0.009 0.0056,0.0111 0.0019,0.005 0.0031,0.0121 0.0056,0.0167 0.0026,0.004 0.0081,0.0124 0.01114,0.0167 0.0047,0.006 0.01103,0.0162 0.01672,0.0223 0.04457,0.0499 0.13349,0.0724 0.261858,0.0724 0.140849,1e-5 0.276344,-0.0268 0.401143,-0.0891 0.123021,-0.0606 0.222189,-0.1511 0.295286,-0.25628 0.05349,-0.0749 0.09628,-0.1901 0.133715,-0.33986 z"
       id="path74"
       style="fill:#bd0000;fill-opacity:1;fill-rule:evenodd;stroke:none;stroke-width:0.28222223pt;stroke-linecap:butt;stroke-linejoin:miter" />
    <g
       id="g80"
       transform="matrix(0.16714324,0,0,0.16714324,-57.257525,125.56359)"
       style="fill:#000000;fill-opacity:0.94117647;fill-rule:evenodd;stroke:none;stroke-width:1.00000003pt;stroke-linecap:butt;stroke-linejoin:miter">
      <path
         id="path82"
         d="M 0.032,0 C 0.02133333,0 0.01066667,0 0,0 c 1.0346667,0.01066667 1.7173333,0.36266667 2.176,1.12 0.2026667,0.32 0.3093333,0.8 0.3093333,1.408 0,0.1066667 -0.021333,0.2453333 -0.032,0.3626667 0,0 0.042667,0 0.042667,0 0,-0.1173334 0.021333,-0.256 0.021333,-0.3626667 0,-0.608 -0.096,-1.088 -0.2986666,-1.408 C 1.76,0.352 1.0666667,0 0.032,0 Z"
         style="fill:#000000;fill-opacity:0.94117647;stroke-width:1.06666669pt" />
    </g>
    <g
       id="g4966"
       transform="matrix(0.16714324,0,0,0.16714324,-115.84461,53.045293)"
       style="fill:#bd0000;fill-opacity:1">
      <g
         transform="translate(133.46912,483.61963)"
         id="g84"
         style="fill:#bd0000;fill-opacity:1;fill-rule:evenodd;stroke:none;stroke-width:1.00000003pt;stroke-linecap:butt;stroke-linejoin:miter">
        <path
           d="m 0,38.4 c 0,0 7.9573333,0 7.9573333,0 0,0 3.5733337,-14.933333 3.5733337,-14.933333 0,0 12.928,0 12.928,0 0,0 1.664,-6.4 1.664,-6.4 0,0 -12.981334,0 -12.981334,0 0,0 2.154667,-9.6000003 2.154667,-9.6000003 0,0 13.813333,0 13.813333,0 0,0 1.664,-7.4666667 1.664,-7.4666667 C 30.773333,0 8.96,0 8.96,0 8.96,0 0,38.4 0,38.4 Z"
           id="path86"
           style="fill:#bd0000;fill-opacity:1;stroke-width:1.06666669pt" />
      </g>
      <g
         transform="translate(161.14912,494.28629)"
         id="g88"
         style="fill:#bd0000;fill-opacity:1;fill-rule:evenodd;stroke:none;stroke-width:1.00000003pt;stroke-linecap:butt;stroke-linejoin:miter">
        <path
           d="m 8.0106667,27.733333 c 0,0 2.3893333,-10.026666 2.3893333,-10.026666 1.258667,-5.429334 3.914667,-10.2400003 8.938667,-10.2400003 0.448,0 0.885333,0.224 1.216,0.2773333 0,0 1.941333,-7.69066667 1.941333,-7.69066667 C 22.048,0.05333333 21.557333,0 21.002667,0 17.301333,0 14.197333,2.6026667 12.128,6.336 c 0,0 -0.213333,0 -0.213333,0 0.309333,-1.824 0.576,-3.552 0.778666,-5.2693333 0,0 -6.8586663,0 -6.8586663,0 C 5.44,3.2853333 4.832,7.6266667 3.904,11.541333 c 0,0 -3.904,16.192 -3.904,16.192 0,0 8.0106667,0 8.0106667,0 z"
           id="path90"
           style="fill:#bd0000;fill-opacity:1;stroke-width:1.06666669pt" />
      </g>
      <g
         transform="translate(183.15445,494.28629)"
         id="g92"
         style="fill:#bd0000;fill-opacity:1;fill-rule:evenodd;stroke:none;stroke-width:1.00000003pt;stroke-linecap:butt;stroke-linejoin:miter">
        <path
           d="m 21.397333,20.533333 c -2.208,1.077334 -4.725333,0.8 -7.658666,0.8 -2.314667,0 -4.106667,-0.405333 -5.0880003,-1.194666 -0.512,-0.864 -0.7253334,-2.208 -0.6826667,-3.072 10.805333,0.288 17.621333,-2.208 17.962667,-9.034667 C 26.186667,2.88 22.421333,0 16.949333,0 7.1786667,0 0.77866667,8.6186667 0.36266667,16.917333 0,24.16 3.7546667,27.733333 11.498667,27.733333 c 2.976,0 6.922666,-0.341333 10.154666,-1.312 0,0 -0.256,-5.888 -0.256,-5.888 z M 18.474667,8.032 c -0.128,2.538667 -3.264,2.688 -9.4400003,2.634667 C 9.7066667,8.4373333 11.968,6.4 15.669333,6.4 c 1.824,0 2.869334,0.6933333 2.805334,1.632 z"
           id="path94"
           style="fill:#bd0000;fill-opacity:1;stroke-width:1.06666669pt" />
      </g>
      <g
         transform="translate(211.44245,494.28629)"
         id="g96"
         style="fill:#bd0000;fill-opacity:1;fill-rule:evenodd;stroke:none;stroke-width:1.00000003pt;stroke-linecap:butt;stroke-linejoin:miter">
        <path
           d="m 21.386667,20.533333 c -2.208,1.077334 -4.725334,0.8 -7.648,0.8 -2.325334,0 -4.106667,-0.405333 -5.0880003,-1.194666 -0.512,-0.864 -0.736,-2.208 -0.6933334,-3.072 C 18.773333,17.354667 25.578667,14.858667 25.930667,8.032 26.186667,2.88 22.421333,0 16.949333,0 7.168,0 0.768,8.6186667 0.352,16.917333 0,24.16 3.7546667,27.733333 11.488,27.733333 c 2.986667,0 6.933333,-0.341333 10.165333,-1.312 0,0 -0.266666,-5.888 -0.266666,-5.888 z M 18.474667,8.032 c -0.128,2.538667 -3.264,2.688 -9.450667,2.634667 C 9.7066667,8.4373333 11.957333,6.4 15.658667,6.4 c 1.824,0 2.88,0.6933333 2.816,1.632 z"
           id="path98"
           style="fill:#bd0000;fill-opacity:1;stroke-width:1.06666669pt" />
      </g>
      <g
         transform="translate(249.74645,494.28629)"
         id="g100"
         style="fill:#bd0000;fill-opacity:1;fill-rule:evenodd;stroke:none;stroke-width:1.00000003pt;stroke-linecap:butt;stroke-linejoin:miter">
        <path
           d="M 24.256,27.733333 C 24.32,24.352 25.130667,19.04 25.973333,15.552 c 0,0 3.424,-14.4853333 3.424,-14.4853333 C 27.221333,0.33066667 23.829333,0 20.565333,0 7.3173333,0 0.74666667,9.8133333 0.288,19.008 0,24.778667 3.1253333,27.733333 7.9893333,27.733333 c 3.1466667,0 6.6986667,-1.525333 9.4613337,-6.112 0,0 0.117333,0 0.117333,0 -0.213333,2.208 -0.469333,4.352 -0.608,6.112 0,0 7.296,0 7.296,0 z m -5.472,-15.232 c -1.557333,6.784 -4.736,8.832 -7.104,8.832 -2.208,0 -3.168,-1.568 -3.04,-3.850666 C 8.896,12.330667 12.970667,6.4 18.112,6.4 c 0.832,0 1.482667,-0.1493333 2.090667,-0.2986667 0,0 -1.418667,6.3999997 -1.418667,6.3999997 z"
           id="path102"
           style="fill:#bd0000;fill-opacity:1;stroke-width:1.06666669pt" />
      </g>
      <g
         transform="translate(279.21845,494.28629)"
         id="g104"
         style="fill:#bd0000;fill-opacity:1;fill-rule:evenodd;stroke:none;stroke-width:1.00000003pt;stroke-linecap:butt;stroke-linejoin:miter">
        <path
           d="M 0,26.474667 C 1.536,27.669333 4.7573333,27.68 8.1173333,27.733333 15.296,27.786667 20.714667,24.650667 21.034667,18.890667 21.216,15.050667 18.24,12.778667 15.328,11.253333 13.226667,10.24 12.170667,9.2693333 12.224,8.1386667 12.298667,6.6133333 13.728,6.4 15.829333,6.4 c 2.368,0 4.266667,0.288 5.354667,0.5013333 0,0 2.154667,-5.7813333 2.154667,-5.7813333 C 22.112,0.384 19.658667,0 16.512,0 9.5466667,0 4.448,3.68 4.16,9.2693333 3.9893333,12.725333 6.4746667,15.050667 9.4826667,16.629333 c 2.4320003,1.248 3.2640003,2.208 3.2000003,3.562667 C 12.608,21.557333 11.392,21.333333 9.184,21.333333 c -2.592,0 -5.4613333,-0.341333 -6.976,-0.576 0,0 -2.208,5.717334 -2.208,5.717334 z"
           id="path106"
           style="fill:#bd0000;fill-opacity:1;stroke-width:1.06666669pt" />
      </g>
      <g
         transform="translate(313.83179,482.55296)"
         id="g108"
         style="fill:#bd0000;fill-opacity:1;fill-rule:evenodd;stroke:none;stroke-width:1.00000003pt;stroke-linecap:butt;stroke-linejoin:miter">
        <path
           d="M 7.9466667,39.466667 C 7.9466667,39.466667 14.4,12.8 14.4,12.8 c 0,0 -7.904,0 -7.904,0 0,0 -6.496,26.666667 -6.496,26.666667 0,0 7.9466667,0 7.9466667,0 z M 11.648,9.6 c 2.709333,0 5.12,-2.24 5.269333,-6.08 C 17.045333,0.91733333 15.36,0 12.874667,0 10.282667,0 7.9146667,1.6853333 7.776,4.2026667 7.648,6.7413333 9.3333333,9.6 11.648,9.6 Z"
           id="path110"
           style="fill:#bd0000;fill-opacity:1;stroke-width:1.06666669pt" />
      </g>
      <g
         transform="translate(329.07445,495.02229)"
         id="g112"
         style="fill:#bd0000;fill-opacity:1;fill-rule:evenodd;stroke:none;stroke-width:1.00000003pt;stroke-linecap:butt;stroke-linejoin:miter">
        <path
           d="m 7.9573333,26.997333 c 0,0 2.8159997,-12.010666 2.8159997,-12.010666 1.461334,-6.1120003 4.608,-8.2560003 7.2,-8.2560003 2.048,0 2.645334,0.8746666 2.549334,2.144 -0.05333,1.024 -0.213334,2.1013333 -0.426667,3.0613333 0,0 -3.584,15.061333 -3.584,15.061333 0,0 7.957333,0 7.957333,0 0,0 3.776,-15.797333 3.776,-15.797333 0.288,-1.3653333 0.608,-3.4026667 0.672,-4.64 C 29.152,1.7493333 26.752,0 22.336,0 c -3.541333,0 -6.986667,1.6426667 -9.706667,5.2053333 0,0 -0.106666,0 -0.106666,0 0,0 0.725333,-4.87466663 0.725333,-4.87466663 0,0 -7.0186667,0 -7.0186667,0 C 5.7706667,2.6133333 5.184,5.376 4.352,8.5973333 c 0,0 -4.352,18.3999997 -4.352,18.3999997 0,0 7.9573333,0 7.9573333,0 z"
           id="path114"
           style="fill:#bd0000;fill-opacity:1;stroke-width:1.06666669pt" />
      </g>
      <g
         transform="translate(371.27179,483.61963)"
         id="g116"
         style="fill:#bd0000;fill-opacity:1;fill-rule:evenodd;stroke:none;stroke-width:1.00000003pt;stroke-linecap:butt;stroke-linejoin:miter">
        <path
           d="m 0,38.4 c 0,0 7.9573333,0 7.9573333,0 0,0 3.5839997,-14.933333 3.5839997,-14.933333 0,0 12.917334,0 12.917334,0 0,0 1.664,-6.4 1.664,-6.4 0,0 -12.981334,0 -12.981334,0 0,0 2.154667,-9.6000003 2.154667,-9.6000003 0,0 13.813333,0 13.813333,0 0,0 1.664,-7.4666667 1.664,-7.4666667 C 30.773333,0 8.96,0 8.96,0 8.96,0 0,38.4 0,38.4 Z"
           id="path118"
           style="fill:#bd0000;fill-opacity:1;stroke-width:1.06666669pt" />
      </g>
      <g
         transform="translate(398.95179,494.28629)"
         id="g120"
         style="fill:#bd0000;fill-opacity:1;fill-rule:evenodd;stroke:none;stroke-width:1.00000003pt;stroke-linecap:butt;stroke-linejoin:miter">
        <path
           d="m 8.0106667,27.733333 c 0,0 2.3893333,-10.026666 2.3893333,-10.026666 1.258667,-5.429334 3.914667,-10.2400003 8.938667,-10.2400003 0.448,0 0.885333,0.224 1.216,0.2773333 0,0 1.941333,-7.69066667 1.941333,-7.69066667 C 22.048,0.05333333 21.557333,0 21.002667,0 17.301333,0 14.197333,2.6026667 12.128,6.336 c 0,0 -0.213333,0 -0.213333,0 0.309333,-1.824 0.576,-3.552 0.778666,-5.2693333 0,0 -6.8586663,0 -6.8586663,0 -0.384,2.2186666 -1.0026667,6.56 -1.9306667,10.4746663 0,0 -3.904,16.192 -3.904,16.192 0,0 8.0106667,0 8.0106667,0 z"
           id="path122"
           style="fill:#bd0000;fill-opacity:1;stroke-width:1.06666669pt" />
      </g>
      <g
         transform="translate(420.95712,494.28629)"
         id="g124"
         style="fill:#bd0000;fill-opacity:1;fill-rule:evenodd;stroke:none;stroke-width:1.00000003pt;stroke-linecap:butt;stroke-linejoin:miter">
        <path
           d="m 21.397333,20.533333 c -2.208,1.077334 -4.725333,0.8 -7.658666,0.8 -2.314667,0 -4.106667,-0.405333 -5.0880003,-1.194666 -0.512,-0.864 -0.7253334,-2.208 -0.6826667,-3.072 10.805333,0.288 17.621333,-2.208 17.962667,-9.034667 C 26.186667,2.88 22.421333,0 16.949333,0 7.1786667,0 0.77866667,8.6186667 0.36266667,16.917333 0,24.16 3.7653333,27.733333 11.498667,27.733333 c 2.976,0 6.933333,-0.341333 10.154666,-1.312 0,0 -0.256,-5.888 -0.256,-5.888 z M 18.474667,8.032 c -0.128,2.538667 -3.264,2.688 -9.4400003,2.634667 C 9.7066667,8.4373333 11.968,6.4 15.669333,6.4 c 1.824,0 2.869334,0.6933333 2.805334,1.632 z"
           id="path126"
           style="fill:#bd0000;fill-opacity:1;stroke-width:1.06666669pt" />
      </g>
      <g
         transform="translate(449.24512,494.28629)"
         id="g128"
         style="fill:#bd0000;fill-opacity:1;fill-rule:evenodd;stroke:none;stroke-width:1.00000003pt;stroke-linecap:butt;stroke-linejoin:miter">
        <path
           d="m 21.386667,20.533333 c -2.208,1.077334 -4.725334,0.8 -7.648,0.8 -2.325334,0 -4.106667,-0.405333 -5.0880003,-1.194666 -0.512,-0.864 -0.736,-2.208 -0.6933334,-3.072 C 18.773333,17.354667 25.578667,14.858667 25.930667,8.032 26.186667,2.88 22.421333,0 16.949333,0 7.168,0 0.768,8.6186667 0.352,16.917333 0,24.16 3.7546667,27.733333 11.488,27.733333 c 2.986667,0 6.933333,-0.341333 10.165333,-1.312 0,0 -0.266666,-5.888 -0.266666,-5.888 z M 18.474667,8.032 c -0.128,2.538667 -3.264,2.688 -9.450667,2.634667 C 9.7066667,8.4373333 11.957333,6.4 15.658667,6.4 c 1.824,0 2.88,0.6933333 2.816,1.632 z"
           id="path130"
           style="fill:#bd0000;fill-opacity:1;stroke-width:1.06666669pt" />
      </g>
      <g
         transform="translate(477.38379,482.55296)"
         id="g132"
         style="fill:#bd0000;fill-opacity:1;fill-rule:evenodd;stroke:none;stroke-width:1.00000003pt;stroke-linecap:butt;stroke-linejoin:miter">
        <path
           d="m 24.864,0 c 0,0 -2.997333,12.117333 -2.997333,12.117333 -1.088,-0.448 -2.506667,-0.384 -3.616,-0.384 C 8.032,11.733333 0.8,20.48 0.32,29.952 0,36.629333 3.5626667,39.466667 8.1493333,39.466667 c 3.2106667,0 6.5919997,-1.418667 9.1519997,-5.088 0,0 0.106667,0 0.106667,0 0,0 -0.608,5.088 -0.608,5.088 0,0 7.232,0 7.232,0 0.330667,-3.2 1.024,-7.008 1.802667,-10.485334 0,0 6.922666,-28.981333 6.922666,-28.981333 0,0 -7.893333,0 -7.893333,0 z m -6.229333,26.048 c -1.248,5.258667 -4.192,7.018667 -6.517334,7.018667 -2.3146663,0 -3.605333,-1.610667 -3.445333,-4.48 0.2666667,-5.312 3.914667,-10.453334 8.661333,-10.453334 1.333334,0 2.474667,0.202667 3.104,0.501334 0,0 -1.802666,7.413333 -1.802666,7.413333 z"
           id="path134"
           style="fill:#bd0000;fill-opacity:1;stroke-width:1.06666669pt" />
      </g>
      <g
         transform="translate(509.07445,494.28629)"
         id="g136"
         style="fill:#bd0000;fill-opacity:1;fill-rule:evenodd;stroke:none;stroke-width:1.00000003pt;stroke-linecap:butt;stroke-linejoin:miter">
        <path
           d="m 11.317333,27.733333 c 9.28,0 16.437334,-7.029333 16.938667,-16.597333 C 28.565333,4.8 24.618667,0 17.333333,0 7.712,0 0.81066667,7.7866667 0.33066667,17.194667 0,24.042667 4.416,27.733333 11.317333,27.733333 Z m 1.248,-6.4 C 9.856,21.333333 8.3626667,19.605333 8.5226667,17.024 8.736,12.725333 11.392,6.4 15.968,6.4 c 3.157333,0 4.128,2.4213333 4,4.8 -0.234667,4.693333 -3.093333,10.133333 -7.402667,10.133333 z"
           id="path138"
           style="fill:#bd0000;fill-opacity:1;stroke-width:1.06666669pt" />
      </g>
      <g
         transform="translate(539.53845,494.28629)"
         id="g140"
         style="fill:#bd0000;fill-opacity:1;fill-rule:evenodd;stroke:none;stroke-width:1.00000003pt;stroke-linecap:butt;stroke-linejoin:miter">
        <path
           d="m 7.68,27.733333 c 0,0 2.88,-12.181333 2.88,-12.181333 1.205333,-5.429333 4.213333,-9.152 6.912,-9.152 1.941333,0 2.474667,1.4186667 2.378667,3.2746667 C 19.797333,10.634667 19.584,11.712 19.36,12.778667 c 0,0 -3.562667,14.954666 -3.562667,14.954666 0,0 7.68,0 7.68,0 0,0 2.88,-12.234666 2.88,-12.234666 C 27.68,9.8986667 30.517333,6.4 33.162667,6.4 c 1.824,0 2.581333,1.3013333 2.496,3.1573333 C 35.605333,10.634667 35.381333,11.818667 35.104,12.896 c 0,0 -3.456,14.837333 -3.456,14.837333 0,0 7.733333,0 7.733333,0 0,0 3.722667,-15.797333 3.722667,-15.797333 0.288,-1.418667 0.618667,-3.6266667 0.672,-4.7573333 C 44.010667,2.4853333 41.717333,0 37.578667,0 34.037333,0 30.592,1.6 27.978667,4.9706667 27.882667,2.5386667 26.144,0 21.834667,0 c -3.488,0 -6.816,1.5786667 -9.482667,5.152 0,0 -0.106667,0 -0.106667,0 0,0 0.714667,-4.0853333 0.714667,-4.0853333 0,0 -6.848,0 -6.848,0 C 5.664,3.3493333 5.12,6.112 4.288,9.3333333 c 0,0 -4.288,18.3999997 -4.288,18.3999997 0,0 7.68,0 7.68,0 z"
           id="path142"
           style="fill:#bd0000;fill-opacity:1;stroke-width:1.06666669pt" />
      </g>
    </g>
    <path
       id="path2592"
       d="m -52.706623,128.33513 c 0.07237,0.18606 0.144746,0.37182 0.220136,0.55351 0.116099,0.24683 0.250293,0.4831 0.411628,0.70369 0.871509,1.18468 2.331059,1.83334 4.18414,1.99482 0,0 1.99331,0 1.99331,0 0.630256,-0.0492 1.290674,-0.14083 1.975215,-0.27472 1.180605,-0.23085 2.432079,-0.58548 3.7318,-1.05938 0.984591,-0.35901 1.996323,-0.78375 3.023131,-1.27741 2.236066,-1.07189 4.54601,-2.45439 6.812233,-4.12277 0.74636,-0.54899 1.462564,-1.1123 2.150118,-1.68511 0.630264,-0.52441 1.23489,-1.05697 1.812372,-1.5954 1.611836,-1.55334 2.828628,-3.13095 3.517696,-4.51616 0.717704,-1.44251 0.860952,-2.67589 0.27291,-3.45286 -0.360365,-0.47691 -0.963483,-0.73248 -1.739998,-0.79265 3.498085,-2.62477 5.536634,-5.80879 4.805355,-7.81627 -0.232207,-0.64066 -0.74335,-1.11863 -1.47614,-1.38295 -0.325678,-0.11716 -0.692081,-0.19134 -1.091647,-0.22512 0,0 -1.076566,0 -1.076566,0 -1.503272,0.10841 -3.689323,0.6467 -5.543912,1.5556"
       style="fill:none;fill-opacity:0.94117647;fill-rule:evenodd;stroke:#bd0000;stroke-width:0.89143044;stroke-linecap:butt;stroke-linejoin:miter;stroke-miterlimit:4;stroke-opacity:1" />
  </g>
</svg>
